<?xml version="1.0" encoding="utf-8"?>
<!-- Generator: Adobe Illustrator 25.2.0, SVG Export Plug-In . SVG Version: 6.00 Build 0)  -->
<svg version="1.1" id="Layer_1" xmlns="http://www.w3.org/2000/svg" xmlns:xlink="http://www.w3.org/1999/xlink" x="0px" y="0px"
	 viewBox="0 0 670.1 154.12" style="enable-background:new 0 0 670.1 154.12;" xml:space="preserve">
<style type="text/css">
	.st0{fill:#000A33;}
	.st1{fill:#15D9F9;}
	.st2{fill:none;stroke:#1D1D1B;stroke-width:0.6111;stroke-miterlimit:10;}
	.st3{fill:none;stroke:#17FFD4;stroke-width:14;stroke-miterlimit:10;}
	.st4{fill:url(#SVGID_1_);}
	.st5{fill:url(#SVGID_2_);}
	.st6{fill:url(#SVGID_3_);}
	.st7{fill:url(#SVGID_4_);}
	.st8{fill:url(#SVGID_5_);}
	.st9{fill:url(#SVGID_6_);}
	.st10{fill:url(#SVGID_7_);}
	.st11{fill:#2FAC66;}
	.st12{fill:#44F993;}
	.st13{fill:url(#SVGID_8_);}
	.st14{fill:url(#SVGID_9_);}
	.st15{fill:url(#SVGID_10_);}
	.st16{fill:url(#SVGID_11_);}
	.st17{fill:url(#SVGID_12_);}
	.st18{fill:url(#SVGID_13_);}
	.st19{fill:url(#SVGID_14_);}
	.st20{fill:url(#SVGID_15_);}
	.st21{fill:url(#SVGID_16_);}
	.st22{fill:#FFFFFF;}
	.st23{fill:none;stroke:#FFFFFF;stroke-miterlimit:10;}
	.st24{fill:#00242B;}
	.st25{fill:#E3E3E3;}
	.st26{opacity:0.29;clip-path:url(#SVGID_18_);fill:url(#SVGID_19_);}
	.st27{clip-path:url(#SVGID_21_);}
	.st28{clip-path:url(#SVGID_23_);}
	.st29{opacity:0.46;fill:#1D1D1B;}
	.st30{fill:#2AC4D8;}
	.st31{fill:#067C8C;}
	.st32{fill:#0D9EB2;}
	.st33{fill:#F6F6F6;}
	.st34{fill:#EDEDED;}
	.st35{fill:none;stroke:#00A9E7;stroke-width:3;stroke-miterlimit:10;}
	.st36{fill:#2FAC66;stroke:#FFFFFF;stroke-miterlimit:10;}
	.st37{opacity:0.73;fill:#000A33;}
	.st38{opacity:0.73;}
	.st39{opacity:0.73;fill:none;stroke:#A7B0D1;stroke-width:3;stroke-miterlimit:10;}
	.st40{opacity:0.43;fill:#C6C6C6;}
	.st41{opacity:0.43;}
	.st42{fill:#C6C6C6;}
	.st43{fill:none;stroke:#44F993;stroke-miterlimit:10;stroke-dasharray:14,5;}
	.st44{fill:none;stroke:#44F993;stroke-miterlimit:10;}
	.st45{fill:#B2B2B2;}
</style>
<g>
	<polygon class="st12" points="61.1,30.8 29.03,60.66 61.1,90.53 29.03,120.39 61.1,120.39 93.17,90.53 61.1,60.66 93.17,30.8 	"/>
	<polygon class="st12" points="325.12,40.53 290.77,81.32 325.12,120.86 359.48,120.86 325.12,81.32 359.48,40.53 	"/>
	<polygon class="st12" points="431.3,40.31 386.37,80.66 386.37,121.01 431.3,80.66 431.3,80.66 476.22,121.01 476.22,80.66 
		431.3,40.31 	"/>
	<polygon class="st12" points="120.03,70.19 137.2,57.19 120.03,57.19 	"/>
	<rect x="120.03" y="75.6" class="st12" width="17.18" height="44.75"/>
	<polygon class="st12" points="208.32,70.27 225.49,57.27 208.32,57.27 	"/>
	<rect x="208.32" y="75.67" class="st12" width="17.18" height="44.75"/>
	<rect x="167.92" y="40.09" class="st12" width="18.85" height="80.33"/>
	<rect x="258.16" y="39.97" class="st12" width="25.14" height="80.9"/>
	<polygon class="st12" points="606.38,112.49 614.44,105.2 614.44,64.6 606.38,71.89 	"/>
	<polygon class="st12" points="620.64,99.6 630.65,90.56 630.65,49.96 620.64,59 	"/>
	<polygon class="st12" points="637.17,44.06 637.17,84.66 642.82,79.56 642.82,38.96 	"/>
	<polygon class="st12" points="597.89,79.56 594.93,76.88 594.93,76.89 552.97,38.97 508.04,79.57 508.04,120.17 552.97,79.57 
		597.89,120.17 597.89,79.57 597.89,79.56 	"/>
</g>
</svg>
