<svg id="cevital-logo" xmlns="http://www.w3.org/2000/svg" width="1056.7" height="263.1" viewBox="0 0 1056.7 263.1">
  <g id="Group_1" data-name="Group 1">
    <path id="Path_1" data-name="Path 1" d="M150.1,106c21,62.4,23.5,126.1,23.8,148.4,0-160.7,96.1-194,96.1-194V1.7C215.1,16.5,176.6,59.3,150.1,106Z" fill="#9ca3af"/>
    <path id="Path_2" data-name="Path 2" d="M135.1,135.2c26.5,57.4,36.8,113.5,38.8,125.2v-6.1c-.3-22.4-2.8-86-23.8-148.4C144.6,115.6,139.6,125.5,135.1,135.2Z" fill="#9ca3af"/>
  </g>
  <path id="Path_3" data-name="Path 3" d="M173.9,261c-1.1-11.7-12.2-69.5-38.8-127a347.891,347.891,0,0,0-31.6-55.3c-.2-.3-.5-.7-.7-1-.7-1-1.4-1.9-2.1-2.9C75.8,40.3,43.2,11.6,0,0V58.7s19.3,6.7,40.6,28.4c28.6,34.1,52.2,87.6,55.8,172a14.769,14.769,0,0,0,.1,2.1h77.3S173.9,262,173.9,261Z" fill="#9ca3af"/>
  <g id="Group_2" data-name="Group 2">
    <path id="Path_4" data-name="Path 4" d="M323.3,227.6c18.6,0,33.9-7.4,45.7-22.1l24.3,25q-28.95,32.55-68.2,32.6-39.3,0-64.6-24.8-25.35-24.75-25.4-62.6,0-37.8,25.9-63.1c17.3-16.8,38.4-25.3,63.3-25.3q41.85,0,70,31.8L370.7,146q-18-22.35-44.7-22.4c-14.3,0-26.4,4.7-36.6,14-10.1,9.3-15.2,21.9-15.2,37.7s4.8,28.5,14.3,38A47.71,47.71,0,0,0,323.3,227.6Z" fill="#9ca3af"/>
    <path id="Path_5" data-name="Path 5" d="M594.7,261.1l-51.8-131h37.9l32.6,82.4L646,130.1h37.9l-51.8,131Z" fill="#9ca3af"/>
    <path id="Path_6" data-name="Path 6" d="M738.3,261.1H701.9V130.4h36.4Z" fill="#9ca3af"/>
    <path id="Path_7" data-name="Path 7" d="M1056.7,261.1h-36.4V80.8h36.4Z" fill="#9ca3af"/>
  </g>
  <rect id="Rectangle_1" data-name="Rectangle 1" width="37.2" height="35.8" transform="translate(701.8 80.5)" fill="#9ca3af"/>
  <g id="Group_3" data-name="Group 3">
    <path id="Path_8" data-name="Path 8" d="M150.1,106c21,62.4,23.5,126.1,23.8,148.4,0-160.7,96.1-194,96.1-194V1.7C215.1,16.5,176.6,59.3,150.1,106Z" fill="#9ca3af"/>
    <path id="Path_9" data-name="Path 9" d="M135.1,135.2c26.5,57.4,36.8,113.5,38.8,125.2v-6.1c-.3-22.4-2.8-86-23.8-148.4C144.6,115.6,139.6,125.5,135.1,135.2Z" fill="#9ca3af"/>
  </g>
  <path id="Path_10" data-name="Path 10" d="M173.9,261c-1.1-11.7-12.2-69.5-38.8-127a347.891,347.891,0,0,0-31.6-55.3c-.2-.3-.5-.7-.7-1-.7-1-1.4-1.9-2.1-2.9C75.8,40.3,43.2,11.6,0,0V58.7s19.3,6.7,40.6,28.4c28.6,34.1,52.2,87.6,55.8,172a14.769,14.769,0,0,0,.1,2.1h77.3S173.9,262,173.9,261Z" fill="#9ca3af"/>
  <g id="Group_4" data-name="Group 4">
    <path id="Path_11" data-name="Path 11" d="M323.3,227.6c18.6,0,33.9-7.4,45.7-22.1l24.3,25q-28.95,32.55-68.2,32.6-39.3,0-64.6-24.8-25.35-24.75-25.4-62.6,0-37.8,25.9-63.1c17.3-16.8,38.4-25.3,63.3-25.3q41.85,0,70,31.8L370.7,146q-18-22.35-44.7-22.4c-14.3,0-26.4,4.7-36.6,14-10.1,9.3-15.2,21.9-15.2,37.7s4.8,28.5,14.3,38A47.71,47.71,0,0,0,323.3,227.6Z" fill="#9ca3af"/>
    <path id="Path_12" data-name="Path 12" d="M594.7,261.1l-51.8-131h37.9l32.6,82.4L646,130.1h37.9l-51.8,131Z" fill="#9ca3af"/>
    <path id="Path_13" data-name="Path 13" d="M738.3,261.1H701.9V130.4h36.4Z" fill="#9ca3af"/>
    <path id="Path_14" data-name="Path 14" d="M1056.7,261.1h-36.4V80.8h36.4Z" fill="#9ca3af"/>
  </g>
  <rect id="Rectangle_2" data-name="Rectangle 2" width="37.2" height="35.8" transform="translate(701.8 80.5)" fill="#9ca3af"/>
  <g id="Group_5" data-name="Group 5">
    <rect id="Rectangle_3" data-name="Rectangle 3" width="0.1" transform="translate(779.6 156.7)" fill="#9ca3af"/>
    <path id="Path_15" data-name="Path 15" d="M791.5,156.7" fill="#9ca3af"/>
    <path id="Path_16" data-name="Path 16" d="M791.5,156.7" fill="#9ca3af"/>
    <path id="Path_17" data-name="Path 17" d="M846.7,222c-4.7,6.2-10.5,9.2-17.3,9.2a11.835,11.835,0,0,1-9.2-4.3c-2.6-2.8-3.9-6.8-3.9-11.8V156.5h31.6V130.3H816.3V80.7H779.6v49.7H764.3v26.2h27.2a13.212,13.212,0,0,0-11.9,13h0v47.3c0,14.3,4.3,25.5,13,33.8s19.3,12.4,31.8,12.4c12.6,0,24.5-5.2,35.8-15.6Z" fill="#9ca3af"/>
  </g>
  <g id="Group_7" data-name="Group 7">
    <path id="Path_18" data-name="Path 18" d="M442.6,182.7Z" fill="none"/>
    <path id="Path_19" data-name="Path 19" d="M442.4,194.9" fill="#9ca3af"/>
    <path id="Path_20" data-name="Path 20" d="M460,208.6c.1,0,.1.1,0,0h0Z" fill="#9ca3af"/>
    <path id="Path_21" data-name="Path 21" d="M442.6,182.6c0-.2.1-.3.1-.5A1.087,1.087,0,0,1,442.6,182.6Z" fill="#9ca3af"/>
    <rect id="Rectangle_4" data-name="Rectangle 4" width="10.4" transform="translate(490.4 182.6)" fill="#9ca3af"/>
    <path id="Path_22" data-name="Path 22" d="M455.4,182.6Z" fill="#9ca3af"/>
    <path id="Path_23" data-name="Path 23" d="M442.4,186.7Z" fill="#9ca3af"/>
    <path id="Path_24" data-name="Path 24" d="M442.4,194.9" fill="#9ca3af"/>
    <path id="Path_25" data-name="Path 25" d="M455.4,182.7Z" fill="#9ca3af"/>
    <path id="Path_26" data-name="Path 26" d="M455.4,182.7Z" fill="#9ca3af"/>
    <g id="Group_6" data-name="Group 6">
      <path id="Path_27" data-name="Path 27" d="M442.6,182.7Z" fill="none"/>
      <path id="Path_28" data-name="Path 28" d="M442.4,186.7v8.1a12.849,12.849,0,0,1,.7-3.4" fill="#9ca3af"/>
      <path id="Path_29" data-name="Path 29" d="M537.7,208.7V189.3q0-28.5-18.8-44.7c-12.6-10.9-27.8-16.3-45.8-16.3a67.009,67.009,0,0,0-46.8,18.2c-13.2,12.2-19.8,28.5-19.8,49.1s6.5,37,19.4,49.2q19.5,18.3,49.2,18.3T527,242.2l-20.4-22.1c-8.3,8.6-18.8,12.9-31.6,12.9a36.1,36.1,0,0,1-21.4-6.8,26.317,26.317,0,0,1-11.2-17.5h95.3Zm-82.3-26h-.2a12.6,12.6,0,0,0-9.3,4.1h0a14.242,14.242,0,0,0-2.9,4.7,12.85,12.85,0,0,0-.7,3.4V186c0-1.1.1-2.2.2-3.3h0v-.1c0-.2.1-.3.1-.5,1.1-7.2,5.3-12.9,11.2-17.2a32.738,32.738,0,0,1,19.8-6.6,27.5,27.5,0,0,1,18.3,6.3q7.5,6.3,8.7,18H455.4Z" fill="#9ca3af"/>
    </g>
  </g>
  <path id="Path_30" data-name="Path 30" d="M975.7,140.1c-10-7.9-23-11.9-38.9-11.9q-33,0-58.8,18.7l16.3,23.6a68.422,68.422,0,0,1,17.9-9.4,59.738,59.738,0,0,1,20-3.8c14.7,0,22.1,7,22.1,20.9v.7H927.1c-16.9,0-30.1,3.3-39.9,10-9.7,6.6-14.6,16.6-14.6,30s4.7,24.1,14.1,32.1,21,12,34.9,12c13.8,0,25.5-5.9,34.9-17.7v15.8h34.3V177.8C990.8,160.6,985.8,148.1,975.7,140.1Zm-21.6,71.2a19.544,19.544,0,0,1-7.4,15.9,26.431,26.431,0,0,1-17.1,6c-6.5,0-11.5-1.3-14.9-3.8-3.5-2.5-5.2-6.1-5.2-10.8,0-9.1,7.3-13.6,21.9-13.6h10a13.092,13.092,0,0,0,12.9-12.7Z" fill="#9ca3af"/>
</svg>
