<svg xmlns="http://www.w3.org/2000/svg" width="128.016" height="58.578" viewBox="0 0 128.016 58.578">
  <g id="logo" transform="translate(0.016 -0.002)">
    <path id="Path_92" data-name="Path 92" d="M49.18,51.5V49.3h1.69a12.528,12.528,0,0,0,.12,1.57v.26l2.41.07a1.15,1.15,0,0,0-.06.32Zm36.56.05c0-.65-.06-1.28-.09-1.92H83.87a1.29,1.29,0,0,1,.06-.33h5.34v.31H87.55c0,.61-.07,1.23-.09,1.87C86.88,51.5,86.31,51.52,85.74,51.55Zm4.44-.08V49.29h4.31v.31H92.05a.18.18,0,0,0-.12.09v.48c.84,0,1-.09,2.62-.23a2.119,2.119,0,0,0-.12.4c-.81.08-1.63.2-2.45.3v.47c.84,0,1.69.07,2.57.11a1.08,1.08,0,0,0-.15.31c-1.4-.03-2.84-.06-4.22-.06Zm5.58.03V49.27h1.65c0,.62.06,1.24.09,1.88l2.48.06a1,1,0,0,0-.15.31c-1.36-.02-2.72-.02-4.07-.02Zm5.13,0c0-.74-.06-1.47-.06-2.2h4.37v.22h-2.56v.62l.39-.06c.72-.07,1.45-.14,2.17-.18v.31c-.81.08-1.63.18-2.41.28a3.263,3.263,0,0,1-.09.53l2.44.07h.06v.3h-2.26Zm5.51-.22c0-.59-.06-1.19-.06-1.76a3.48,3.48,0,0,1,1.11-.25h3.12l.66.13a2,2,0,0,0-.06.44l-1.6.13a1.829,1.829,0,0,1-.06-.37h-1.29v1.52h1.29a.88.88,0,0,1,0-.31c.57-.07,1.18-.14,1.78-.18a5.676,5.676,0,0,1-.09.69c-.85.23-3.89.44-4.8-.04Zm-52.16-.02a16.959,16.959,0,0,1,.06-1.76,2.49,2.49,0,0,1,1.09-.23h3c.57.07.57.07.78.18v.4l-1.72.2v-.44H56.12a5.23,5.23,0,0,0,0,1.52h1.24a2.07,2.07,0,0,1,0-.42,7.279,7.279,0,0,0-.75,0,.92.92,0,0,1,.06-.3c2-.2,2.11-.28,2.57-.28,0,.46-.06.92-.06,1.41-1.18-.07-3.91.16-4.94-.28Zm6.58-1.99h4.1a1.241,1.241,0,0,0,.09.33l-2.48.07a2.739,2.739,0,0,0-.06.48c.75,0,.88-.09,2.54-.23a1.23,1.23,0,0,0-.07.36c-.82.08-1.66.19-2.47.3v.46a.55.55,0,0,0,.06.11h2.48v.26H60.69c0-.75-.06-1.48-.06-2.21Zm15.12,0H80l.09.33-2.47.07a2.16,2.16,0,0,0-.06.48c.75,0,.87-.09,2.53-.23a1.31,1.31,0,0,0-.06.36c-.81.08-1.66.19-2.47.3v.46a.33.33,0,0,0,.06.11h2.47v.26H75.77c0-.75-.06-1.48-.06-2.21Zm-9.72,0V51.5C66.13,49.27,66.13,49.27,66.22,49.27Zm6.34,0V51.5A9.11,9.11,0,0,1,72.56,49.27Zm0,2.23V49.27h1.72V51.5Zm1.72,0V49.27A9.111,9.111,0,0,1,74.28,51.5Zm44.85-.03v-2c.09-.12.09-.12.79-.23h2.71a3.2,3.2,0,0,0,1,0h2.78l.79.18v2h-1.7c-.06-.61-.08-1.24-.12-1.85h-1.3c0,.6-.06,1.21-.06,1.83H122.3V49.57H121c-.06,0-.06,0-.12,1.85Z" fill="#9ca3af" fill-rule="evenodd"/>
    <path id="Path_93" data-name="Path 93" d="M51,51.1h.09l2.32.07Z" fill="#9ca3af" fill-rule="evenodd"/>
    <path id="Path_94" data-name="Path 94" d="M53.4,51.17l-2.32-.07c2.38,0,2.38,0,2.35.07Zm2.72-1.54v1.52a5.23,5.23,0,0,1,0-1.52Zm33.15-.03v-.31H83.93l5.43-.06c0,.37,0,.37-.09.37Zm-46.43-.11v2h-.12v-2Zm1.69,2a5.58,5.58,0,0,1,.12-.77,4.06,4.06,0,0,1,1.27,0,7.55,7.55,0,0,0,0,.84h1.87c0-.69-.06-1.37-.06-2a4.945,4.945,0,0,1-.6-.11H43.57a1.37,1.37,0,0,0-.69.2v2a5.074,5.074,0,0,1,1.65-.18Zm1.29-1.32a3.29,3.29,0,0,1,.12-.53H44.59v.66Zm1.27-.82c0-.07,0-.07-3.56,0,1.19-.06,2.36-.03,3.56-.01ZM66.22,51.5V49.3h4.22a1.45,1.45,0,0,1,.67.18c0,.29.06.6.08.9-1.14.11-1.14.11-1.2.18l1.72.88a6.36,6.36,0,0,1-1.87,0A5.44,5.44,0,0,0,68,50.7c-.06.24-.12.51-.18.77C67.31,51.47,66.76,51.47,66.22,51.5Zm3-1.32a2.432,2.432,0,0,1,.09-.55H68v.64c.39-.05.79-.07,1.21-.09Zm1.23-.89h0Zm43.25,2.18h3.11v.11H113.7Zm3.11,0a1.87,1.87,0,0,0,.84-.22V49.49l-.75-.2h-3.46c-.22,0-.76.09-.76.31a15.629,15.629,0,0,0,.06,1.67,2.1,2.1,0,0,0,1,.2Zm-2.32-1.85v1.5h1.24a12.962,12.962,0,0,1,.06-1.52Zm2.41-.33c-3.46-.06-3.46-.06-3.46,0Z" fill="#9ca3af" fill-rule="evenodd"/>
    <path id="Path_95" data-name="Path 95" d="M60.52,41.41c0,.59.06,1.21.12,1.83a.59.59,0,0,1,.18,0h7C66.65,42.07,64,41.94,62.3,42c.45-.37.9-.75,1.35-1.1a10.72,10.72,0,0,1,5.82,1.61l1.27.79h1.81a9,9,0,0,1,.06-1.28c0-1.08,0-2.16.06-3.24.61-.13,1.21-.27,1.81-.38v6.26H60.6c-.06,1.1-.36,3-2.62,2.65a7.4,7.4,0,0,1-1.06-1.06c.64-.06,1.45,0,1.75-.53V41.66c.94-.1,1.06-.19,1.85-.25Zm63.68,5.17c0-.22,0-.22.42-.64l.57-.06a5.591,5.591,0,0,1,.12-.67,4.53,4.53,0,0,1,1.6-.15c.21.17.43.37.64.57a6.961,6.961,0,0,0-1.18.16,15.278,15.278,0,0,1,1.63.17l-.63.57c-1.05.01-2.11.03-3.17.05Z" fill="#9ca3af" fill-rule="evenodd"/>
    <path id="Path_96" data-name="Path 96" d="M64.32,46.32q.006-.5.06-1h1.9v1Zm-19.64-.57c0-4,0-4,.06-4C44.72,43.06,44.68,44.4,44.68,45.75Zm10.71-7.37v6.26c0,.07,0,.07-1.82.07,0-2,.06-4,.09-6,.58-.1,1.16-.21,1.73-.33Zm69.96,6.28v-5.9c.61-.13,1.21-.27,1.82-.38v6.28Zm-49.06-4.1V38.71l1.78-.33v4.27c0,.81-.06,1.32-.06,2H76.23Zm5.62,2.72c0,.06,6.46.06,6.46,0,0-.49.06-1,.08-1.43l1.73-.33v2.76a1.39,1.39,0,0,0-.06.37h-9.2c-1.15-.51-.91-1.23-.91-2.16.54-.13,1.12-.27,1.69-.37a10.569,10.569,0,0,1,.21,1.16Zm10.38-1.15V38.76c.6-.13,1.21-.27,1.8-.38v3.46c1.08.47,1.08.55,2.14,0,0-1,.09-2.08.15-3.11.57-.13,1.18-.24,1.78-.35v3.75a9.4,9.4,0,0,0-1,.58,5.5,5.5,0,0,0,1,.59,10.392,10.392,0,0,0,.06,1.35H92.25V43.32a8,8,0,0,0,1-.61Zm-36.9,2.51V38.38h.12v6.26Z" fill="#9ca3af" fill-rule="evenodd"/>
    <path id="Path_97" data-name="Path 97" d="M51.77,41.56a10.829,10.829,0,0,0-1.72.26c-.06.47-.1.93-.12,1.39h-3.3c-.05-.62-.11-1.21-.14-1.81a8.62,8.62,0,0,0-1.75.31c0,1.32-.06,2.67-.06,4a2.56,2.56,0,0,1-1.78.49l1,1.12c2.74-.22,2.11-1,2.74-2.64h5.13Zm48.51.73V38.77a9.85,9.85,0,0,1,1.81-.33v4.91h2.41v-.11a.91.91,0,0,1,.06-.29c.46-.11.91-.2,1.39-.29a4.521,4.521,0,0,0,.15.62h.72c3.35-1.81,9.08-4.19,10.95,0v.11h3.83v-1.5c.57-.11,1.15-.22,1.75-.31,0,.42.06.84.09,1.25,0,.62-.06,1.23-.06,1.87H106.24c-.73-.44-.75-.38-1.51,0-1.39,0-3.68.37-4.46-.59.04-.66.01-1.25.01-1.82Zm15.63.95c-.7-2.05-4.67-.64-6.16-.09a.22.22,0,0,0,0,.13c2.05-.02,4.1-.05,6.16-.05ZM83,41.69V40.56h1.88a7.135,7.135,0,0,0,.06,1.13Zm2.5,0a7.074,7.074,0,0,1,.06-1.14h1.87v1.08l-1.93.06Zm-38.41-.55c-.06-.06-.06-.06.42-.67h.61c0-.84.42-.95,1.54-1,.27.22.54.44.84.66a3.918,3.918,0,0,0-1.18.22,9.6,9.6,0,0,1,1.59.09c-.21.22-.39.44-.57.67C49.27,41.12,48.19,41.12,47.09,41.14Zm11.47-.24V39.79h2V40.9Zm60-.09v-1.1h2v1.11Zm2.44,0v-1.1h2v1.11Z" fill="#9ca3af" fill-rule="evenodd"/>
    <path id="Path_98" data-name="Path 98" d="M4.92,49.48V45.74H8.63v3.75Z" fill="#9ca3af" fill-rule="evenodd"/>
    <path id="Path_99" data-name="Path 99" d="M32,40.32a25,25,0,0,1-5.31-1.7c-7.57-4-13.64-9-19.7-14,.33.08,3.53,1.72,6.12,3a5.93,5.93,0,0,0,2.32.64c0-1-1.12-2.19-1.6-3.14-.36-2,.24-2.72,2.47-3.94,7.79-2.7,17.38-2.31,23.93-6.52.39-.33.78-.66,1.21-1a8.21,8.21,0,0,0,2-3.14.68.68,0,0,1,.21-.22A47.3,47.3,0,0,1,56.63,28.5a.43.43,0,0,0-.06.17A39.48,39.48,0,0,0,46.4,32.53c-.09.12-.88.54-3.65,2.52-2.44,1.94-2.44,1.94-5,3.82A10.17,10.17,0,0,1,32,40.32Z" fill="#9ca3af" fill-rule="evenodd"/>
    <path id="Path_100" data-name="Path 100" d="M53.1,53.09c-1.78.59-3,.81-3.14.89a26,26,0,0,1-8.83-1L37.9,51.74c-12.7-5.92-21.69-15-30-23.38q-2.08-2.26-4.17-4.5c-.15-.29-.36-.52-.15-.79a11.52,11.52,0,0,1,2.2.73c0-.38-.84-.91-1.18-1.2-.12-.22-.24-.41-.36-.6a13.35,13.35,0,0,0,3,.4,5.19,5.19,0,0,1-.06-.7C5.53,19.24,2.9,17,.46,14.8A12.039,12.039,0,0,0,0,19.46c.06.89.12,1.8.21,2.71a42.08,42.08,0,0,0,5.46,14.9c.12.17.24.34.36.54a.74.74,0,0,0,.15.24V38c.81,0,1.63,0,2.44.08v3.3h.21a7.29,7.29,0,0,0,.6,1,5.689,5.689,0,0,0,.4.48C16,49.75,24.49,57.07,37.53,58.58H41.9a19.57,19.57,0,0,0,11.37-4.9,9.453,9.453,0,0,1,.87-1A7.745,7.745,0,0,0,53.1,53.09ZM34.39,13.13H31.68C22.39,12.77,13.34,11,4.14,10.3H1.75C4,5.57,7.46,2.06,14.82.26c11.83-1.51,21.11,3.88,28.06,9.4C42.87,12.22,37.44,13,34.39,13.13Z" fill="#9ca3af" fill-rule="evenodd"/>
    <path id="Path_101" data-name="Path 101" d="M4.92,41.78V38H6.19c.81,0,1.63,0,2.44.08v3.7Z" fill="#9ca3af" fill-rule="evenodd"/>
  </g>
</svg>
