<svg xmlns="http://www.w3.org/2000/svg" xmlns:xlink="http://www.w3.org/1999/xlink" width="663.968" height="281.52" viewBox="0 0 663.968 281.52">
  <defs>
    <clipPath id="clip-path">
      <path id="Path_38" data-name="Path 38" d="M599,120h64.969v92H599Zm0,0" fill="#9ca3af"/>
    </clipPath>
  </defs>
  <g id="surface1" transform="translate(-0.001 0.004)">
    <path id="Path_31" data-name="Path 31" d="M614.07,281.516v-6.477h6.262v6.477H614.07" fill="#9ca3af" fill-rule="evenodd"/>
    <path id="Path_32" data-name="Path 32" d="M614.574,271.652c-.289-8.785-.5-17.566-.719-26.351h6.477c-.289,8.711-.5,17.426-.719,26.137-1.726.07-3.383.144-5.039.214" fill="#9ca3af" fill-rule="evenodd"/>
    <path id="Path_33" data-name="Path 33" d="M454.371,121.531c0,8.067.074,16.129.149,24.266-20.711-29.965-49.75-1.367-43.633,29.594,11.16,33.707,43.379,26.773,48.742-6.481.07-30.1-.227-59.41-.082-89.433,7.391-3.684,15.308-5.719,22.777-5.348-.07,32.109.344,63.387.344,95.57a67.339,67.339,0,0,1-1.941,10.082c-6.625,17.352-15.922,26.61-33.2,32.731-84.859,15.812-79.382-115.192,6.848-90.981" fill="#9ca3af" fill-rule="evenodd"/>
    <path id="Path_34" data-name="Path 34" d="M243.844,144.789c-26.864-33.016-64.246,16.313-36.461,45.52C231.969,216.152,263.145,175.742,243.844,144.789Zm.922-22.023c55.457,30.109,17.972,106.078-35.25,89.382-61.364-19.253-31.172-116.011,35.25-89.382" fill="#9ca3af" fill-rule="evenodd"/>
    <path id="Path_35" data-name="Path 35" d="M140.6,212.613c-6.985-.863-6.985-.863-12.024-1.8C29.84,181.133,95.879,54.434,176.668,99.5c.723,3.1-5.977,10.367-8.137,12.746-2.086-1.3-4.1-2.594-6.121-3.816-75.57-27.082-77.668,114.593-1.437,87.695,2.3-.812,5.543-4.246,7.992-4.246,2.445,2.949,7.2,7.7,7.922,12.168a62.785,62.785,0,0,1-25.059,8.207c-3.742.07-7.488.215-11.23.359" fill="#9ca3af" fill-rule="evenodd"/>
    <path id="Path_36" data-name="Path 36" d="M283.879,211.141c0-18.239-1.313-38.055,1.008-56.129,2.105-7.176,4.441-13.532,8.515-18.895,17.8-23.472,53.266-25.265,73.2.535,12.493,16.172,7.223,39.778,8.426,68.668-8.351,3.961-14.488,5.993-22.984,5.59-.07-15.91-.113-32.281-.113-48.191-3.3-40.063-42.957-37.906-45.871-.309-1.176,15.184.511,32.738.855,42.281-7.922,4.059-14.688,6.086-23.039,6.45" fill="#9ca3af" fill-rule="evenodd"/>
    <g id="Group_8" data-name="Group 8" clip-path="url(#clip-path)">
      <path id="Path_37" data-name="Path 37" d="M599.34,211.055c0-15.407.4-31.563.473-46.9,3.257-32,34.042-51.863,64.152-41.109-3.961,8.711-4.418,9.258-6.649,14.805-20.707-5.891-32.375,7.382-34.461,27.242q-.222,19.652-.363,39.383c-6.476,4.945-14.582,5.929-23.152,6.578" fill="#9ca3af" fill-rule="evenodd"/>
    </g>
    <path id="Path_39" data-name="Path 39" d="M77.668,192.742C69.75,189,69.75,189,61.973,184.9A148.77,148.77,0,0,1,34.828,163c-8.5-9.574-13.68-18.43-19.008-29.16-2.953-8.063-7.633-18.789-7.633-26.781,6.7,13.964,15.41,23.832,27.938,34.125a183.125,183.125,0,0,0,28.223,15.7,80.265,80.265,0,0,0,7.777,26.636c2.016,3.028,4.031,6.122,6.047,9.219h-.5" fill="#9ca3af" fill-rule="evenodd"/>
    <path id="Path_40" data-name="Path 40" d="M63.773,148.531c-2.738-1.222-5.473-2.445-8.137-3.672C35.477,133.844,22.375,121.605,12,101.879c-2.16-4.9-4.176-9.363-5.687-13.9C5.309,84.238,4.3,80.492,3.363,76.82A139.868,139.868,0,0,1,1.492,54.934c1.3,2.953,2.594,5.9,3.891,8.926,8.781,16.633,18.863,30.027,34.559,42.051a139.012,139.012,0,0,0,23.832,12.957c2.375.793,4.824,1.586,7.27,2.449v.719c-4.75,7.633-6.047,17.281-6.766,26.5h-.5" fill="#9ca3af" fill-rule="evenodd"/>
    <path id="Path_41" data-name="Path 41" d="M75.293,113.973c-14.617-4.825-25.7-11.086-37.582-19.8-4.754-4.32-4.754-4.32-9.867-9.5C13.231,67.391,4.66,49.531.988,27.859A150.933,150.933,0,0,1,.414,0h.5C4.012,24.766,18.988,45.934,38,61.918c6.48,4.895,6.48,4.895,12.672,9.07a183.991,183.991,0,0,0,49.609,20.3c-10.945,6.266-17.351,13.031-24.984,22.68" fill="#9ca3af" fill-rule="evenodd"/>
    <path id="Path_42" data-name="Path 42" d="M181.852,87.836c-5.11-1.8-5.11-1.8-11.805-3.742-21.242-5.039-40.754-6.984-60.7,2.375-12.383-1.008-26.207-7.992-36.934-12.527a2.042,2.042,0,0,1,.07-.648c4.68-1.945,10.152-4.176,15.191-5.762a137.049,137.049,0,0,1,30.6-3.6c3.6.289,7.2.574,10.8.934a148.909,148.909,0,0,1,32.039,9.578,161.989,161.989,0,0,1,20.809,13.031.528.528,0,0,0-.074.359" fill="#9ca3af" fill-rule="evenodd"/>
    <path id="Path_43" data-name="Path 43" d="M560.645,144.789c-26.864-33.016-64.247,16.313-36.465,45.52C548.77,216.152,579.945,175.742,560.645,144.789Zm.918-22.023c55.46,30.109,17.976,106.078-35.247,89.382-61.363-19.253-31.171-116.011,35.247-89.382" fill="#9ca3af" fill-rule="evenodd"/>
    <g id="Group_15" data-name="Group 15">
      <g id="Group_9" data-name="Group 9" transform="translate(279.838 279.738)">
        <path id="Path_44" data-name="Path 44" d="M4.813-.047,7.406,0V-2.172c0-1.312.047-3.359.109-6.172L7.7-16.3q.117-3.68.328-7.781c.516,0,1.141,0,1.8-.031.687-.047,1.344-.047,2-.047a6.279,6.279,0,0,1,1.75.172,2.678,2.678,0,0,1,1.141.594,2.493,2.493,0,0,1,.766,1.141,4.345,4.345,0,0,1,.25,1.578,5.255,5.255,0,0,1-.656,2.641,3.563,3.563,0,0,1-1.719,1.7,5.836,5.836,0,0,1-2.547.5,9.4,9.4,0,0,1-2.187-.25c.328,1.281.609,2.594.875,4.047a11.9,11.9,0,0,0,2.594.3A9.484,9.484,0,0,0,16.609-12.8,7.7,7.7,0,0,0,19.8-16.078a10.5,10.5,0,0,0,1.156-4.891,9.581,9.581,0,0,0-.547-3.281,6.33,6.33,0,0,0-1.375-2.375,5.857,5.857,0,0,0-2.156-1.406,10.961,10.961,0,0,0-3.625-.422c-.8,0-1.891.047-3.25.078-1.344,0-2.406.047-3.172.047-.953,0-2.156,0-3.687-.047v4.594l-.219,7.953L2.484-4.937,2.156,0C3.609-.047,4.484-.047,4.813-.047Zm0,0" fill="#9ca3af"/>
      </g>
      <g id="Group_10" data-name="Group 10" transform="translate(301.347 279.738)">
        <path id="Path_45" data-name="Path 45" d="M4.375-.047c.781,0,1.578,0,2.484.047-.031-.984-.031-1.781-.031-2.469,0-1.656,0-3.406.078-5.141a35.442,35.442,0,0,1,.25-3.656,8.079,8.079,0,0,1,.516-2.3,6.187,6.187,0,0,1,1.016-1.828,4.235,4.235,0,0,1,1.422-1.062,4.237,4.237,0,0,1,1.875-.391,5.375,5.375,0,0,1,1.891.391c-.109-2-.141-3.672-.141-4.937a6.194,6.194,0,0,0-1.469-.219,6.105,6.105,0,0,0-1.5.219,4.753,4.753,0,0,0-1.344.594,5.693,5.693,0,0,0-1.094.938,17.45,17.45,0,0,0-1.172,1.7l.109-2.984c-.984.047-1.781.047-2.406.047-.516,0-1.359,0-2.453-.047.047,1.109.047,1.781.047,1.953,0,1.2,0,2.391-.047,3.578L2.266-9.875,1.75,0C2.781-.047,3.656-.047,4.375-.047Zm0,0" fill="#9ca3af"/>
      </g>
      <g id="Group_11" data-name="Group 11" transform="translate(315.515 279.738)">
        <path id="Path_46" data-name="Path 46" d="M14.563-3.609a12.46,12.46,0,0,1-2.656.3A6.3,6.3,0,0,1,9.75-3.7,4.8,4.8,0,0,1,7.891-4.891a5.638,5.638,0,0,1-1.2-1.953,8.008,8.008,0,0,1-.406-2.562c0-.3,0-.719.031-1.234H19.391a13.638,13.638,0,0,0,.188-2.031,11.292,11.292,0,0,0-.594-3.781,8.582,8.582,0,0,0-1.719-2.906A6.778,6.778,0,0,0,14.5-21.094a11.43,11.43,0,0,0-3.469-.516,10.832,10.832,0,0,0-3.688.641A7.717,7.717,0,0,0,4.2-18.8a10.417,10.417,0,0,0-2.156,3.906,15.838,15.838,0,0,0-.766,4.937,14.849,14.849,0,0,0,.656,4.422A9.259,9.259,0,0,0,3.984-2,7.141,7.141,0,0,0,7.234-.047a13.86,13.86,0,0,0,4.188.563A19.027,19.027,0,0,0,14.094.344C14.969.219,16.063,0,17.344-.3c.3-2.125.516-3.578.656-4.375A24.337,24.337,0,0,1,14.563-3.609ZM6.828-14.625a5.253,5.253,0,0,1,.547-1.234,3.864,3.864,0,0,1,.953-1.2,5.176,5.176,0,0,1,1.281-.8,4.332,4.332,0,0,1,1.453-.266,3.673,3.673,0,0,1,1.2.172,2.888,2.888,0,0,1,.984.469,2.939,2.939,0,0,1,.766.813,4.053,4.053,0,0,1,.516,1.109,6.825,6.825,0,0,1,.25,1.063,12.816,12.816,0,0,1,.047,1.484H6.469A16.443,16.443,0,0,1,6.828-14.625Zm0,0" fill="#9ca3af"/>
      </g>
      <g id="Group_12" data-name="Group 12" transform="translate(336.002 279.738)">
        <path id="Path_47" data-name="Path 47" d="M4.375-.047c.734,0,1.547,0,2.453.047.078-3.312.188-5.953.328-7.953a26.4,26.4,0,0,1,.578-4.812,7.141,7.141,0,0,1,1.109-2.3,5.148,5.148,0,0,1,1.594-1.391,4.6,4.6,0,0,1,2.016-.469,4.128,4.128,0,0,1,2,.5,3.092,3.092,0,0,1,1.391,1.531,6.6,6.6,0,0,1,.438,2.641c0,.984-.062,2.938-.219,5.953-.109,2.984-.219,5.109-.328,6.3.922-.047,1.828-.047,2.7-.047.7,0,1.5,0,2.406.047.047-1.453.047-2.766.109-4.047l.375-9.047c.031-.812.031-1.406.031-1.8a12.245,12.245,0,0,0-.25-2.547,5.65,5.65,0,0,0-1.172-2.219,5.233,5.233,0,0,0-2.375-1.484,10.168,10.168,0,0,0-3.031-.469,9.355,9.355,0,0,0-1.891.172,7.65,7.65,0,0,0-1.656.516,4.3,4.3,0,0,0-1.375.844,5.915,5.915,0,0,0-1.094,1.063,11.737,11.737,0,0,0-.953,1.453l.172-3.578c-.875.047-1.672.047-2.437.047-.656,0-1.531,0-2.625-.047-.047,3.109-.156,6.641-.328,10.547C2.156-6.672,1.938-3.141,1.641,0,2.7-.047,3.609-.047,4.375-.047Zm0,0" fill="#9ca3af"/>
      </g>
      <g id="Group_13" data-name="Group 13" transform="translate(359.373 279.738)">
        <path id="Path_48" data-name="Path 48" d="M14.563-3.609a12.46,12.46,0,0,1-2.656.3A6.3,6.3,0,0,1,9.75-3.7,4.8,4.8,0,0,1,7.891-4.891a5.638,5.638,0,0,1-1.2-1.953,8.008,8.008,0,0,1-.406-2.562c0-.3,0-.719.031-1.234H19.391a13.638,13.638,0,0,0,.188-2.031,11.292,11.292,0,0,0-.594-3.781,8.582,8.582,0,0,0-1.719-2.906A6.778,6.778,0,0,0,14.5-21.094a11.43,11.43,0,0,0-3.469-.516,10.832,10.832,0,0,0-3.688.641A7.717,7.717,0,0,0,4.2-18.8a10.417,10.417,0,0,0-2.156,3.906,15.838,15.838,0,0,0-.766,4.937,14.849,14.849,0,0,0,.656,4.422A9.259,9.259,0,0,0,3.984-2,7.141,7.141,0,0,0,7.234-.047a13.86,13.86,0,0,0,4.188.563A19.027,19.027,0,0,0,14.094.344C14.969.219,16.063,0,17.344-.3c.3-2.125.516-3.578.656-4.375A24.337,24.337,0,0,1,14.563-3.609ZM6.828-14.625a5.253,5.253,0,0,1,.547-1.234,3.864,3.864,0,0,1,.953-1.2,5.176,5.176,0,0,1,1.281-.8,4.332,4.332,0,0,1,1.453-.266,3.673,3.673,0,0,1,1.2.172,2.888,2.888,0,0,1,.984.469,2.939,2.939,0,0,1,.766.813,4.053,4.053,0,0,1,.516,1.109,6.825,6.825,0,0,1,.25,1.063,12.816,12.816,0,0,1,.047,1.484H6.469A16.443,16.443,0,0,1,6.828-14.625Zm0,0" fill="#9ca3af"/>
      </g>
      <g id="Group_14" data-name="Group 14" transform="translate(379.859 279.738)">
        <path id="Path_49" data-name="Path 49" d="M8.25-.047c2.625,0,5,0,7.094.047.063-1.7.141-3.062.25-4.078-.953.031-1.8.078-2.453.078-.656.047-1.859.047-3.609.047-.8,0-1.8-.047-3-.094l.625-.719L16.063-16.3c.078-2.625.156-4.25.188-4.844-2.3.047-5.078.047-8.328.047-1.828,0-3.766,0-5.844-.047,0,1.484-.031,2.891-.109,4.219,1.141-.094,2.344-.172,3.516-.219,1.2-.047,2.578-.047,4.188-.047h.922L1.859-5.734c-.141.2-.437.594-.906,1.141C.906-2.891.875-1.359.844,0,2.953-.047,5.438-.047,8.25-.047Zm0,0" fill="#9ca3af"/>
      </g>
    </g>
    <g id="Group_17" data-name="Group 17">
      <g id="Group_16" data-name="Group 16" transform="translate(397.449 279.738)">
        <path id="Path_50" data-name="Path 50" fill="#9ca3af"/>
      </g>
    </g>
    <g id="Group_19" data-name="Group 19">
      <g id="Group_18" data-name="Group 18" transform="translate(406.579 279.738)">
        <path id="Path_51" data-name="Path 51" d="M9.5-.047c.688,0,1.594,0,2.656.047l.953-2.672,4.2-11.109,2.922-7.359c-.984.047-1.859.047-2.641.047-.766,0-1.641,0-2.578-.047-.3.891-.562,1.625-.734,2.172L10.266-7.062,9.672-5.234,5.516-21.141c-.844.047-1.687.047-2.484.047-.766,0-1.641,0-2.7-.047C3.766-9.953,5.875-2.937,6.641,0,7.781-.047,8.734-.047,9.5-.047Zm0,0" fill="#9ca3af"/>
      </g>
    </g>
    <g id="Group_21" data-name="Group 21">
      <g id="Group_20" data-name="Group 20" transform="translate(426.263 279.738)">
        <path id="Path_52" data-name="Path 52" d="M7.266-20.719A8.814,8.814,0,0,0,3.875-18.2a9.417,9.417,0,0,0-1.969,3.7,15.583,15.583,0,0,0-.625,4.375,13.372,13.372,0,0,0,.688,4.3A9.508,9.508,0,0,0,3.984-2.344,8.353,8.353,0,0,0,7.156-.219a11.146,11.146,0,0,0,3.938.734A10.887,10.887,0,0,0,15.3-.3a8.1,8.1,0,0,0,3.3-2.375,12.238,12.238,0,0,0,2-3.828,15.025,15.025,0,0,0,.688-4.562,13.82,13.82,0,0,0-.656-4.3,8.673,8.673,0,0,0-1.969-3.391,8.388,8.388,0,0,0-3.172-2.141,11.789,11.789,0,0,0-3.953-.719A10.546,10.546,0,0,0,7.266-20.719ZM14.2-16.453a4.264,4.264,0,0,1,1.531,2.25,9.53,9.53,0,0,1,.484,3.141,11.378,11.378,0,0,1-.594,3.828,5.3,5.3,0,0,1-1.781,2.688,4.524,4.524,0,0,1-2.75.891,4.358,4.358,0,0,1-2.656-.859,5.046,5.046,0,0,1-1.609-2.3,9.574,9.574,0,0,1-.469-3.219,11.641,11.641,0,0,1,.578-3.8,5.3,5.3,0,0,1,1.828-2.594,4.57,4.57,0,0,1,2.766-.891A4.306,4.306,0,0,1,14.2-16.453Zm0,0" fill="#9ca3af"/>
      </g>
    </g>
    <g id="Group_23" data-name="Group 23">
      <g id="Group_22" data-name="Group 22" transform="translate(448.819 279.738)">
        <path id="Path_53" data-name="Path 53" d="M11.2-3.875a7.045,7.045,0,0,1-.937.094,2.3,2.3,0,0,1-1.141-.3,1.817,1.817,0,0,1-.766-1.031,5.714,5.714,0,0,1-.25-2c0-.891.109-4.156.359-9.813h4.563c0-.812.047-2.125.109-4H8.625c0-1.625.063-3.359.141-5.234-1.25.344-2.125.594-2.562.688l-2.078.453c-.078,1.922-.141,3.281-.219,4.094H1.172c-.047,1.828-.078,3.188-.156,4H3.609L3.219-8.25c-.109,1.656-.156,2.641-.156,2.938a6.578,6.578,0,0,0-.031.719,7.9,7.9,0,0,0,.25,2.047A3.541,3.541,0,0,0,4.2-.812,3.184,3.184,0,0,0,5.922.219,8.289,8.289,0,0,0,8.3.516c.469,0,1.016-.047,1.594-.094.547-.078,1.359-.25,2.344-.5.328-2.094.547-3.5.688-4.266A9.832,9.832,0,0,1,11.2-3.875Zm0,0" fill="#9ca3af"/>
      </g>
    </g>
    <g id="Group_25" data-name="Group 25">
      <g id="Group_24" data-name="Group 24" transform="translate(462.388 279.738)">
        <path id="Path_54" data-name="Path 54" d="M4.375-.047c.781,0,1.578,0,2.484.047-.031-.984-.031-1.781-.031-2.469,0-1.656,0-3.406.078-5.141a35.442,35.442,0,0,1,.25-3.656,8.079,8.079,0,0,1,.516-2.3,6.187,6.187,0,0,1,1.016-1.828,4.235,4.235,0,0,1,1.422-1.062,4.237,4.237,0,0,1,1.875-.391,5.375,5.375,0,0,1,1.891.391c-.109-2-.141-3.672-.141-4.937a6.194,6.194,0,0,0-1.469-.219,6.105,6.105,0,0,0-1.5.219,4.753,4.753,0,0,0-1.344.594,5.693,5.693,0,0,0-1.094.938,17.45,17.45,0,0,0-1.172,1.7l.109-2.984c-.984.047-1.781.047-2.406.047-.516,0-1.359,0-2.453-.047.047,1.109.047,1.781.047,1.953,0,1.2,0,2.391-.047,3.578L2.266-9.875,1.75,0C2.781-.047,3.656-.047,4.375-.047Zm0,0" fill="#9ca3af"/>
      </g>
    </g>
    <g id="Group_27" data-name="Group 27">
      <g id="Group_26" data-name="Group 26" transform="translate(476.564 279.738)">
        <path id="Path_55" data-name="Path 55" d="M14.563-3.609a12.46,12.46,0,0,1-2.656.3A6.3,6.3,0,0,1,9.75-3.7,4.8,4.8,0,0,1,7.891-4.891a5.638,5.638,0,0,1-1.2-1.953,8.008,8.008,0,0,1-.406-2.562c0-.3,0-.719.031-1.234H19.391a13.638,13.638,0,0,0,.188-2.031,11.292,11.292,0,0,0-.594-3.781,8.582,8.582,0,0,0-1.719-2.906A6.778,6.778,0,0,0,14.5-21.094a11.43,11.43,0,0,0-3.469-.516,10.832,10.832,0,0,0-3.688.641A7.717,7.717,0,0,0,4.2-18.8a10.417,10.417,0,0,0-2.156,3.906,15.838,15.838,0,0,0-.766,4.937,14.849,14.849,0,0,0,.656,4.422A9.259,9.259,0,0,0,3.984-2,7.141,7.141,0,0,0,7.234-.047a13.86,13.86,0,0,0,4.188.563A19.027,19.027,0,0,0,14.094.344C14.969.219,16.063,0,17.344-.3c.3-2.125.516-3.578.656-4.375A24.337,24.337,0,0,1,14.563-3.609ZM6.828-14.625a5.253,5.253,0,0,1,.547-1.234,3.864,3.864,0,0,1,.953-1.2,5.176,5.176,0,0,1,1.281-.8,4.332,4.332,0,0,1,1.453-.266,3.673,3.673,0,0,1,1.2.172,2.888,2.888,0,0,1,.984.469,2.939,2.939,0,0,1,.766.813,4.053,4.053,0,0,1,.516,1.109,6.825,6.825,0,0,1,.25,1.063,12.816,12.816,0,0,1,.047,1.484H6.469A16.443,16.443,0,0,1,6.828-14.625Zm0,0" fill="#9ca3af"/>
      </g>
    </g>
    <g id="Group_29" data-name="Group 29">
      <g id="Group_28" data-name="Group 28" transform="translate(497.034 279.738)">
        <path id="Path_56" data-name="Path 56" fill="#9ca3af"/>
      </g>
    </g>
    <g id="Group_31" data-name="Group 31">
      <g id="Group_30" data-name="Group 30" transform="translate(506.163 279.738)">
        <path id="Path_57" data-name="Path 57" d="M14.563-3.609a12.46,12.46,0,0,1-2.656.3A6.3,6.3,0,0,1,9.75-3.7,4.8,4.8,0,0,1,7.891-4.891a5.638,5.638,0,0,1-1.2-1.953,8.008,8.008,0,0,1-.406-2.562c0-.3,0-.719.031-1.234H19.391a13.638,13.638,0,0,0,.188-2.031,11.292,11.292,0,0,0-.594-3.781,8.582,8.582,0,0,0-1.719-2.906A6.778,6.778,0,0,0,14.5-21.094a11.43,11.43,0,0,0-3.469-.516,10.832,10.832,0,0,0-3.688.641A7.717,7.717,0,0,0,4.2-18.8a10.417,10.417,0,0,0-2.156,3.906,15.838,15.838,0,0,0-.766,4.937,14.849,14.849,0,0,0,.656,4.422A9.259,9.259,0,0,0,3.984-2,7.141,7.141,0,0,0,7.234-.047a13.86,13.86,0,0,0,4.188.563A19.027,19.027,0,0,0,14.094.344C14.969.219,16.063,0,17.344-.3c.3-2.125.516-3.578.656-4.375A24.337,24.337,0,0,1,14.563-3.609ZM6.828-14.625a5.253,5.253,0,0,1,.547-1.234,3.864,3.864,0,0,1,.953-1.2,5.176,5.176,0,0,1,1.281-.8,4.332,4.332,0,0,1,1.453-.266,3.673,3.673,0,0,1,1.2.172,2.888,2.888,0,0,1,.984.469,2.939,2.939,0,0,1,.766.813,4.053,4.053,0,0,1,.516,1.109,6.825,6.825,0,0,1,.25,1.063,12.816,12.816,0,0,1,.047,1.484H6.469A16.443,16.443,0,0,1,6.828-14.625Zm0,0" fill="#9ca3af"/>
      </g>
    </g>
    <g id="Group_33" data-name="Group 33">
      <g id="Group_32" data-name="Group 32" transform="translate(526.633 279.738)">
        <path id="Path_58" data-name="Path 58" d="M4.375-.047c.734,0,1.547,0,2.453.047.078-3.312.188-5.953.328-7.953a26.4,26.4,0,0,1,.578-4.812,7.141,7.141,0,0,1,1.109-2.3,5.148,5.148,0,0,1,1.594-1.391,4.6,4.6,0,0,1,2.016-.469,4.128,4.128,0,0,1,2,.5,3.092,3.092,0,0,1,1.391,1.531,6.6,6.6,0,0,1,.438,2.641c0,.984-.062,2.938-.219,5.953-.109,2.984-.219,5.109-.328,6.3.922-.047,1.828-.047,2.7-.047.7,0,1.5,0,2.406.047.047-1.453.047-2.766.109-4.047l.375-9.047c.031-.812.031-1.406.031-1.8a12.245,12.245,0,0,0-.25-2.547,5.65,5.65,0,0,0-1.172-2.219,5.233,5.233,0,0,0-2.375-1.484,10.168,10.168,0,0,0-3.031-.469,9.355,9.355,0,0,0-1.891.172,7.65,7.65,0,0,0-1.656.516,4.3,4.3,0,0,0-1.375.844,5.915,5.915,0,0,0-1.094,1.063,11.737,11.737,0,0,0-.953,1.453l.172-3.578c-.875.047-1.672.047-2.437.047-.656,0-1.531,0-2.625-.047-.047,3.109-.156,6.641-.328,10.547C2.156-6.672,1.938-3.141,1.641,0,2.7-.047,3.609-.047,4.375-.047Zm0,0" fill="#9ca3af"/>
      </g>
    </g>
    <g id="Group_35" data-name="Group 35">
      <g id="Group_34" data-name="Group 34" transform="translate(550.009 279.738)">
        <path id="Path_59" data-name="Path 59" d="M9.5-.047c.688,0,1.594,0,2.656.047l.953-2.672,4.2-11.109,2.922-7.359c-.984.047-1.859.047-2.641.047-.766,0-1.641,0-2.578-.047-.3.891-.562,1.625-.734,2.172L10.266-7.062,9.672-5.234,5.516-21.141c-.844.047-1.687.047-2.484.047-.766,0-1.641,0-2.7-.047C3.766-9.953,5.875-2.937,6.641,0,7.781-.047,8.734-.047,9.5-.047Zm0,0" fill="#9ca3af"/>
      </g>
    </g>
    <g id="Group_37" data-name="Group 37">
      <g id="Group_36" data-name="Group 36" transform="translate(569.694 279.738)">
        <path id="Path_60" data-name="Path 60" d="M7.266-20.719A8.814,8.814,0,0,0,3.875-18.2a9.417,9.417,0,0,0-1.969,3.7,15.583,15.583,0,0,0-.625,4.375,13.372,13.372,0,0,0,.688,4.3A9.508,9.508,0,0,0,3.984-2.344,8.353,8.353,0,0,0,7.156-.219a11.146,11.146,0,0,0,3.938.734A10.887,10.887,0,0,0,15.3-.3a8.1,8.1,0,0,0,3.3-2.375,12.238,12.238,0,0,0,2-3.828,15.025,15.025,0,0,0,.688-4.562,13.82,13.82,0,0,0-.656-4.3,8.673,8.673,0,0,0-1.969-3.391,8.388,8.388,0,0,0-3.172-2.141,11.789,11.789,0,0,0-3.953-.719A10.546,10.546,0,0,0,7.266-20.719ZM14.2-16.453a4.264,4.264,0,0,1,1.531,2.25,9.53,9.53,0,0,1,.484,3.141,11.378,11.378,0,0,1-.594,3.828,5.3,5.3,0,0,1-1.781,2.688,4.524,4.524,0,0,1-2.75.891,4.358,4.358,0,0,1-2.656-.859,5.046,5.046,0,0,1-1.609-2.3,9.574,9.574,0,0,1-.469-3.219,11.641,11.641,0,0,1,.578-3.8,5.3,5.3,0,0,1,1.828-2.594,4.57,4.57,0,0,1,2.766-.891A4.306,4.306,0,0,1,14.2-16.453Zm0,0" fill="#9ca3af"/>
      </g>
    </g>
    <g id="Group_39" data-name="Group 39">
      <g id="Group_38" data-name="Group 38" transform="translate(592.25 279.738)">
        <path id="Path_61" data-name="Path 61" d="M4.484-.047c.7,0,1.547,0,2.484.047l.078-3.875L7.672-20.8l.438-7.578c-1.031.047-1.859.047-2.562.047-.5,0-1.391,0-2.625-.047-.078,4.438-.219,9.656-.469,15.75Q2.055-3.508,1.8,0C3.359-.047,4.266-.047,4.484-.047Zm0,0" fill="#9ca3af"/>
      </g>
    </g>
  </g>
</svg>
