<svg id="hamoud" xmlns="http://www.w3.org/2000/svg" width="512" height="512" viewBox="0 0 512 512">
  <path id="Path_1" data-name="Path 1" d="M256,512c141.385,0,256-114.615,256-256S397.385,0,256,0,0,114.615,0,256,114.615,512,256,512Z" fill="none"/>
  <path id="Path_2" data-name="Path 2" d="M116.561,206.45c-.63-.58-1.34-1.15-2.02-1.66a5.043,5.043,0,0,0-1.81-1.01c-.1-.01-.56-.11-1.38-.33-5.49-1.31-10.96-2.55-16.42-3.79a167.134,167.134,0,0,1,11.27-28.24l-1.22-1.52-.65-.83c-.29-.29-.84-.97-1.78-1.92a25.338,25.338,0,0,0-4.01-3.87c-2.97-1.59-7.43-1.1-13.41,2.09a38.142,38.142,0,0,0-7.19,4.92,11.222,11.222,0,0,0-3.05,4.38,7.008,7.008,0,0,0,.34,6.3c1.66,2.33,3.1,4.2,4.19,5.65,2.37,2.94,4.79,5.81,7.31,8.57a4.687,4.687,0,0,0-.21.52c-.33,1.1,1.2,3.5,4.65,6.87a20.3,20.3,0,0,0,8.59,5.3c1.01.25,2.47.54,4.29.89,2.93.44,4.87.78,5.76.93.94.21,1.72.34,2.37.43,3.29.5,6.55,1.02,9.83,1.6l-1.75-1.74A44.824,44.824,0,0,0,116.561,206.45Zm-27.65-16.92c-1.11-1.5-2.23-3.01-3.29-4.57a34.47,34.47,0,0,1-3.09-4.93,3.974,3.974,0,0,1-.22-3.26c.46-1.21,1.78-2.6,3.88-4.05a20.943,20.943,0,0,1,6.21-3.03,14.5,14.5,0,0,1,4.99-.36A173.487,173.487,0,0,0,88.911,189.53Zm23.82,14.25c-.01,0-.03-.02-.05-.02C112.771,203.78,112.771,203.78,112.731,203.78Zm67.05-107.52a170.98,170.98,0,0,0-36.7,26.11c-2.71,2.54-5.36,5.14-7.9,7.84.15-.16-.38.33-1.58,1.58-1.89,1.83-3.67,2.72-5.58,2.64-1.51-.15-3.55-1.28-6.21-3.52l-1.63-1.41c.26,1.56.46,3.12.74,4.67l.48,2.56a18.184,18.184,0,0,1,.45,7.28,18.779,18.779,0,0,1-2.28,5.72c-1.27,2.21-3.09,5.08-5.27,8.61l-6.05,9.76c1.49-5.59,2.83-10.45,3.71-14.5.7-2.92,1.3-5.7,1.85-8.42.43-2,.79-4.18,1.11-6.57l-1.23-.38a49.748,49.748,0,0,0-16.61-2.38,54.713,54.713,0,0,0-11.75,2.3,3.4,3.4,0,0,1,.12,3.45,3.118,3.118,0,0,1-2.25,1.41c-4.12.81-6.69.93-7.82.28-.67-.4-1.48-2.09-2.3-5.18-.6-2.39-.57-4.06-.1-4.84,2.04-3.29,7.53-5.3,16.28-5.39a66.874,66.874,0,0,1,26.09,5.48l.15-2.76.09-2.95a2.831,2.831,0,0,0-.82-2.72l-.93-.77-.79-.82L96.271,109c1.48-3.29,3.04-6.56,4.72-9.83l24.62,23.25c1.15,1.08,2.04,1.5,2.74,1.34.65-.17,1.8-1.12,3.47-2.83,1.36-1.35,2.76-2.7,4.17-4.03l-.02-.02c.16-.15.32-.28.47-.43.27-.25.52-.52.8-.77l.03.03c3.65-3.36,7.38-6.61,11.26-9.67a8.91,8.91,0,0,1-4.99-2.86,10.991,10.991,0,0,1-2.06-7c-.14-7.7,2.66-13.59,7.96-17.08a15.3,15.3,0,0,1,10.43-2.17,17.09,17.09,0,0,1,7.79,3.43c-4.86.1-8.89,1.17-11.96,3.12-5.2,3.29-8.1,8.48-8.46,15.13l.74.05c3.6.07,5.64.2,6.18.23a20.805,20.805,0,0,0,4.73-.42,177.126,177.126,0,0,1,20.22-11.84C179.261,89.86,179.471,93.09,179.781,96.26Zm60.41-43.6c-2.01,2.39-3.96,4.82-5.82,7.26a14.172,14.172,0,0,1,5.35,9.49,162.845,162.845,0,0,0-16.58,2.33v-.02c-.26.05-.51.11-.77.16l-.96.18v.02c-3.7.75-7.38,1.59-11.02,2.58a22.1,22.1,0,0,0-7.93-9.73c-3.55-2.37-6.88-2.98-9.73-1.97a8.517,8.517,0,0,0-4.67,3.88,26.424,26.424,0,0,0-3.33,9.93,16.345,16.345,0,0,0,1.06,8.79,6.083,6.083,0,0,0,3.6,3.32,8.8,8.8,0,0,0,5.37.24c.87-.22,2.56-.9,5.04-1.77,2.35-.86,4.7-1.66,7.09-2.41a20.7,20.7,0,0,1-3.4,9.51,15.568,15.568,0,0,1-6.96,5.88,25.613,25.613,0,0,1-6.54,1.53c7.09,3.21,11.51,4.71,13.86,3.81,3.36-1.3,5.63-5.57,7.39-12.99a32.482,32.482,0,0,0,1.05-9.32c3.87-1.08,7.8-1.99,11.72-2.77a157.071,157.071,0,0,1,18.26-2.5c1.1-2.89,1.9-4.88,2.25-6.02,1.37-3.82,2.08-6.74,1.97-8.95C246.331,59.37,244.341,55.82,240.191,52.66Zm-44.34,26.71c-2.69,1.02-4.37.71-5.04-1.03a5.486,5.486,0,0,1,.36-4.41,5.929,5.929,0,0,1,3.38-3.27c3.33-1.2,6.43.85,8.97,6.06C200.931,77.56,198.391,78.46,195.851,79.37Zm43.18,6.44c2.33,1.53,4.58,3.13,6.78,4.77-1.56,1.53-3.05,3.11-4.51,4.72-2.21-1.65-4.46-3.26-6.79-4.81C235.961,88.91,237.451,87.35,239.031,85.81Zm62.35-15.17a18.95,18.95,0,0,1-4.27,6.99c-1.49,1.64-2.97,3.33-4.46,5a147.476,147.476,0,0,0-22.35-4.21c1.11-2.86,2.3-5.7,3.5-8.53a154.949,154.949,0,0,1,19.35,3.68,11.02,11.02,0,0,0-1.11-7.74c-1.25-2.1-3.88-4.32-7.93-6.43,1.96-2.02,3.96-3.98,6.02-5.93,4.82,2.65,8.08,5.55,9.92,8.44A10.263,10.263,0,0,1,301.381,70.64Zm125.4,120.04a109.967,109.967,0,0,1-2.47-11.4c-1.05-6.4-2.06-13.71-3.23-22.1a24.753,24.753,0,0,0-2.62-8.57c-1.41-2.21-3.89-4-7.45-5.16-1.53-.61-3.07-1.15-4.61-1.69.81.87,1.36,1.53,1.61,1.86a25.915,25.915,0,0,1,3.55,9.37,45.345,45.345,0,0,1,1.01,12.71,21.062,21.062,0,0,0-5.01-3.71,193.431,193.431,0,0,0-17.41-24.73l.05-.04c-2.9-3.51-5.92-6.93-9.02-10.23l6.83-6.53c1.84-1.77,2.83-3.03,2.9-3.81.12-1.68-.96-3.8-3.38-6.17a28.848,28.848,0,0,0-15.39-8.27,23.03,23.03,0,0,0-15.47,2.72q-5.595-4.245-11.52-8.07l.01-.01c-.18-.11-.36-.22-.53-.33-.35-.22-.68-.46-1.03-.68l-.02.03c-3.31-2.11-6.67-4.14-10.09-6.04a21.446,21.446,0,0,0,.84-12.65q-1.59-6.345-5.9-8.33a9.018,9.018,0,0,0-6.24-.55,26.264,26.264,0,0,0-9.54,4.72,16.108,16.108,0,0,0-5.46,7,6.245,6.245,0,0,0,.41,4.94,9.639,9.639,0,0,0,3.89,4c.86.48,2.52,1.21,5.08,2.34,2.38,1.07,4.7,2.17,7.03,3.34a20.618,20.618,0,0,1-9.3,4.33,16.261,16.261,0,0,1-9.38-.8,25.611,25.611,0,0,1-6.06-3.48c3.12,7.3,5.37,11.51,7.82,12.53,3.48,1.51,8.22.07,14.79-3.94a30.1,30.1,0,0,0,7.33-5.91c3.66,2.02,7.26,4.17,10.77,6.44,3.3,2.12,6.52,4.34,9.69,6.67,1.87-.51,3.79-1,5.73-1.41a179.041,179.041,0,0,1,10.88,24.77c2.54-.69,5.13-1.33,7.75-1.94,3.15,3.28,6.17,6.68,9.06,10.15a184.575,184.575,0,0,1,15.34,21.21,14.618,14.618,0,0,0,2.04,2.81,15.852,15.852,0,0,0,3.17,1.58c5.15,2.24,9.35,6.54,12.04,12.57a39.223,39.223,0,0,1,2.62,8.56c3.12.97,6.18,2.04,9.28,3.25ZM326.841,86.35c-2.54-1.26-5.06-2.45-7.67-3.58-2.68-1.21-3.74-2.62-3.04-4.36a5.5,5.5,0,0,1,3.36-2.88,6.351,6.351,0,0,1,4.89.07C327.711,77.14,328.591,80.78,326.841,86.35Zm45.94,39.84a183.55,183.55,0,0,0-7.89-18.13,15.986,15.986,0,0,1,14.02,4.54c2.47,2.37,2.93,4.38,1.49,5.87Z" fill="#9ca3af"/>
  <path id="Path_3" data-name="Path 3" d="M61.189,319.34l-3.91,1.45-.63-2-.69-2.12-.74-2.04c-.21-.65-.45-1.25-.67-1.82l18.06-5.65c-.51-1.74-.99-3.38-1.41-4.84l-1.1-4.06-1.08-4.04c-.39-1.57-.81-3.38-1.29-5.39l-3.64.78-5.8,1.3-5.68,1.29-3.31.75-.36-2-.39-2.27-.46-2.2c-.14-.66-.26-1.27-.39-1.83l19.88-3.29,18.89-3.44a34.706,34.706,0,0,0,1.32,6.73L71,288.14c.4,2.01.76,3.77,1.12,5.36.38,1.52.72,2.88,1,3.95.31,1.13.67,2.44,1.11,3.92.45,1.43.94,3.03,1.56,4.79l16.28-5.38c.09.43.22.89.36,1.42.17.53.34,1.11.57,1.72.19.64.43,1.24.65,1.79.19.58.41,1.08.62,1.56l-3.31,1.2-5.66,1.96-5.64,2.02-3.48,1.28-3.45,1.25-5.7,2.12Zm23.72,32.08c-2.2,2.86-4.73,6.27-7.56,10.3-.29-.52-.62-1.12-.98-1.76l-1.34-2.22-1.3-2.14c-.36-.6-.69-1.07-.93-1.44.62-.81,1.61-2.06,3.04-3.71,1.41-1.65,3.21-3.79,5.4-6.29l-.64-1.12c-.26-.51-.62-1.2-1.03-2.05-.65-1.28-1.3-2.57-1.96-3.82-.96-1.95-1.68-3.51-2.28-4.69-.55-1.21-.96-2.05-1.22-2.5-1.46.09-3.26.17-5.4.26-2.2.05-4.75.1-7.69.16-.12-.35-.24-.71-.36-1.02a8.557,8.557,0,0,0-.36-.96l-.39-.9c-.14-.33-.29-.65-.45-1.01.94.08,3.28.18,7.02.23,3.7.05,8.83.02,15.28-.26,3.86-.19,7.46-.46,10.76-.71,3.35-.26,6.42-.55,9.3-.9a24.962,24.962,0,0,0,2.21,4.32c-1.32,1.34-3.12,3.25-5.35,5.73q-3.345,3.69-8.05,9.32C89.059,346.18,87.109,348.56,84.909,351.42Zm-1.37-9.87c1.3-1.5,2.92-3.38,4.96-5.62,1.97-2.2,4.39-4.82,7.2-7.72-5.95.71-11.96,1.23-17.99,1.56l1.05,2.33c.31.71.58,1.34.86,1.9l.74,1.5.69,1.35c.29.56.58,1.2.99,1.89Zm53.38,30.7a18.748,18.748,0,0,1-3.36-3.34c-1.89.8-4.12,1.71-6.76,2.7s-5.63,2.12-9.09,3.27c-8.49,2.82-13.41,4.01-14.46,4.26,3.64-9.15,6.18-14.25,6.91-15.8,1.87-3.64,3.45-6.53,4.7-8.72s2.16-3.7,2.71-4.59c-1.37-1.77-2.35-3.2-3.04-4.27l-9.97,5.8q-4.275,2.46-7.34,4.1c-4.27,2.39-7.89,4.34-10.84,5.92l-6.79,3.57.72.97c.22.33.45.63.67.94l.63.97c.21.33.4.69.6,1.04q4.755-2.76,8.06-4.78c2.18-1.33,3.95-2.39,5.21-3.25l7.27-4.31,4.12-2.44c-1.75,3.17-3.17,5.91-4.39,8.17l-2.78,5.45c-1.97,3.88-3.48,7.14-4.63,9.67-1.13,2.52-1.92,4.32-2.33,5.37a15.078,15.078,0,0,1,1.96,2.38c5.8-1.4,11.49-3.01,17.09-4.77,3.52-1.09,6.35-2.03,8.51-2.77,2.2-.73,3.77-1.32,4.73-1.67l-4.55,5.79-3.45,4.33q-5.04,6.2-10,12.45l1.54,1.4,1.72,1.6,1.63,1.59,1.39,1.35c3.93-5.81,7.99-11.56,12.11-17.24C130.219,380.74,134.089,375.74,136.919,372.25Zm27.9,45.22c-2.78,5.23-6.86,8.63-12.49,9.89-5.56,1.26-11.44-.04-17.12-3.97-5.66-3.95-8.95-8.97-9.79-14.65-.84-5.74.89-10.77,4.73-15.26a21.977,21.977,0,0,1,13.79-7.64,21.121,21.121,0,0,1,23.07,15.95A21.923,21.923,0,0,1,164.819,417.47Zm-3.81-17.38c-.36-3.84-1.72-6.54-4.17-8.24s-5.44-2-9.13-.94a21.819,21.819,0,0,0-11.13,7.9c-3.38,4.29-5.03,8.59-4.65,13.02a11.478,11.478,0,0,0,15.21,10.56c4.25-1.33,7.65-4.41,10.43-9.06A22.112,22.112,0,0,0,161.009,400.09Zm40.17,11.49-5.4,16.9-2.45,7.49c-.63,1.92-1.13,3.33-1.46,4.2a9.622,9.622,0,0,1-2.04.86,13.587,13.587,0,0,1-2.66.59,13.44,13.44,0,0,1-7.1-.66c-5.68-2.26-7.2-6.31-4.72-11.79l10.55-23.56a64.115,64.115,0,0,1-6.26-2.94q-2.19,4.755-6.6,13.73l-3.79,7.8c-1.92,3.9-2.93,6.92-3.02,9.14a8.728,8.728,0,0,0,.48,3.36,11.281,11.281,0,0,0,1.68,3.2,13.4,13.4,0,0,0,2.73,2.75,15.361,15.361,0,0,0,3.57,2.06,19.087,19.087,0,0,0,15.9-.69c-.34,1.03-.69,1.98-1,2.86l-.74,2.23,2.04.59,1.99.59,2.04.65,2.09.69q2.34-9.57,5.51-20.43l1.32-4.48,3.93-13.11C205.659,413.01,203.469,412.35,201.179,411.58Zm40.35,13.49a20.116,20.116,0,0,1,5.06,14.86c-.26,6-2.62,10.82-7.46,14.14-4.49,3.07-10.07,4.24-16.35,3.25l-1.87-.27c-.69-.12-1.42-.28-2.26-.46-1.36-.24-2.69-.48-4.01-.74l-3.88-.78c-.84-.17-1.56-.33-2.2-.45l-1.46-.34,4.5-18.7.84-3.78,1.39-6.24,1.37-6.15.84-3.65.62.14,1.6.45c.69.16,1.34.34,1.96.46l1.73.35c.55.12,1.13.22,1.75.31l1.84.32c.65.08,1.23.2,1.8.28l1.54.22A19.728,19.728,0,0,1,241.529,425.07Zm-6.67,1.78a13.847,13.847,0,0,0-8.87-5.51l-2.06-.33-1.97-.28-.36,1.83-.89,4.34-1.01,5.13-.74,3.86-.89,4.54c-.29,1.65-.63,3.49-.98,5.54l-.88,4.76-.36,1.89a3.973,3.973,0,0,0,.91.22l1.75.31,1.9.35c.53.04.98.09,1.24.13l.55.09a12.725,12.725,0,0,0,11.22-3.36c2.88-2.74,4.43-6.5,4.82-11.15h.05A17.013,17.013,0,0,0,234.859,426.85Zm61.43,17.62a9.369,9.369,0,0,1-.43,5.24,10.554,10.554,0,0,1-3.21,4.52c-2.35,2.02-6.48,3.45-12.33,4.05-2.06.21-4.15.39-6.23.53l-3.23.29c-.89.09-1.59.17-2.09.23l-.14-2.09-.38-6.29-.38-7.15-.26-4.75-.34-5.18-.57-6.96-.33-5.05-.15-2.02a11.534,11.534,0,0,0,1.46,0c.62-.02,1.46-.09,2.42-.17l1.44-.12c.6-.07,1.3-.15,2.06-.28.82-.09,1.49-.22,2.09-.29l1.49-.18c1.03-.12,1.94-.21,2.71-.27a19.813,19.813,0,0,1,2.06.01,10.6,10.6,0,0,1,4.67,1.6,8.667,8.667,0,0,1,3.91,5.96,8.5,8.5,0,0,1,.02,3.48,7.673,7.673,0,0,1-1.29,3.02,9.048,9.048,0,0,1-2.57,2.33,10.211,10.211,0,0,1-3.65,1.22v.12a13.478,13.478,0,0,1,8.54,1.77A9.315,9.315,0,0,1,296.289,444.47Zm-21.64-8.24,1.13-.12c6-.67,8.58-3.59,7.84-8.3-.41-2.48-1.49-4.15-3.19-5a7.533,7.533,0,0,0-4.48-.59l-1.58.21c-.31.05-.55.09-.77.12l-.38.03Zm13.71,9.25a8.936,8.936,0,0,0-1.54-3.67,6.947,6.947,0,0,0-2.85-2.41c-1.58-.7-3.89-.79-7-.45l-2.02.22,1.01,9.76c.26,2.68.5,4.75.69,6.28a32.725,32.725,0,0,0,4.31-.33,8.5,8.5,0,0,0,5.28-2.3A7.724,7.724,0,0,0,288.359,445.48Zm51.22-25.02c2.61,5.32,2.99,10.64.76,16-2.21,5.25-6.66,9.29-13.19,11.66-6.45,2.34-12.47,2.14-17.55-.5-5.11-2.65-8.23-6.99-9.62-12.75a21.924,21.924,0,0,1,1.85-15.71,21.017,21.017,0,0,1,26.28-9.56A21.935,21.935,0,0,1,339.579,420.46Zm-7.54,3.52a22.352,22.352,0,0,0-8.75-10.49c-3.33-1.91-6.31-2.38-9.11-1.38-2.8,1.03-4.79,3.3-6.07,6.92a21.97,21.97,0,0,0-.07,13.69c1.51,5.25,4.07,9.1,7.84,11.37a11.282,11.282,0,0,0,10.28,1.29,11.631,11.631,0,0,0,7.15-7.61C334.7,433.56,334.2,428.97,332.039,423.98Zm37.7-30.06-8.39-10.84c-1.68,1.4-3.48,2.8-5.46,4.19l10.55,14.27,4.65,6.38c1.18,1.63,2.04,2.83,2.56,3.61a9.961,9.961,0,0,1-.48,2.19,18.394,18.394,0,0,1-1.08,2.51,13.135,13.135,0,0,1-4.65,5.4c-5.1,3.36-9.28,2.23-12.28-2.94l-13-22.31c-2.13,1.35-4.13,2.47-5.99,3.41,1.7,3.02,4.15,7.47,7.31,13.36l4.1,7.6c2.06,3.83,3.93,6.45,5.68,7.79a8.727,8.727,0,0,0,3.02,1.55,11.72,11.72,0,0,0,3.57.5,14.691,14.691,0,0,0,3.77-.62,17.712,17.712,0,0,0,3.77-1.74,19.34,19.34,0,0,0,8.66-13.42c.62.91,1.18,1.73,1.73,2.46l1.37,1.93,1.65-1.34,1.66-1.3,1.72-1.27,1.73-1.3q-6.36-7.515-13.36-16.38Zm36.37-15.9q5.115,1.815,12.11,3.95l-1.34,1.51-1.68,1.95-1.63,1.93c-.41.54-.77.96-1.05,1.34-.94-.38-2.45-.95-4.46-1.74-2.01-.82-4.58-1.84-7.63-3.15l-.86.91c-.41.45-.96,1.01-1.65,1.65-1,1.03-1.96,2.03-2.98,3.07l-3.71,3.65c-.96.92-1.61,1.59-1.97,1.96.55,1.33,1.2,3.02,1.97,5.06.74,2.06,1.59,4.47,2.56,7.29l-.86.64c-.27.21-.51.42-.77.64-.22.2-.48.42-.72.68-.27.22-.53.48-.79.74-.26-.91-.91-3.2-2.04-6.76-1.1-3.55-2.76-8.42-5.06-14.46-1.42-3.64-2.8-6.98-4.05-10.08q-1.935-4.6-3.79-8.53a29.34,29.34,0,0,0,3.4-3.45c1.7.79,4.05,1.89,7.07,3.25,3.05,1.35,6.81,2.97,11.39,4.76C399.859,375.73,402.709,376.81,406.109,378.02Zm-8.89,4.42c-1.84-.78-4.12-1.77-6.84-2.94-2.73-1.25-5.97-2.7-9.61-4.49,2.56,5.48,4.94,11.01,7.17,16.69l1.85-1.76c.58-.52,1.08-.96,1.53-1.4l1.2-1.18,1.05-1.07c.45-.44.93-.96,1.49-1.57Zm32.27-21.6c-1.36,2.22-3.04,4.82-5.08,7.75l-2.35-1.65-4.58-3.19-4.61-3.22-2.42-1.71-3.38-2.43-5.32-3.83-4.85-3.54-2.04-1.47c-.21.34-.48.78-.84,1.26l-1.06,1.48-1.1,1.5c-.36.46-.72.88-1.05,1.29l1.54,1.19,4.84,3.7,5.47,4.12,3.46,2.64,3.24,2.53,5.3,4.19,5.04,3.97,2.32,1.77,3.19-4.44q1.83-2.535,4.03-5.79c1.34-1.98,2.54-3.82,3.6-5.46l2.86-4.53-2.9-1.74C431.989,356.73,430.9,358.64,429.489,360.84Zm16.83-32.54-1.22,3.07c-.53,1.3-1.06,2.54-1.61,3.71l-1.53,3.33c-.63,1.3-1.27,2.6-1.92,3.92l-2.49-1.27-4.65-2.31-4.53-2.23-2.14-1.11,1.18-2.32c.72-1.48,1.48-3.09,2.3-4.83.81-1.77,1.68-3.72,2.63-5.87l-2.9-1.22c-.93,2.25-1.75,4.25-2.52,5.98-.79,1.74-1.51,3.27-2.16,4.63l-1.15,2.3-6.04-3.15-6.93-3.54c1.56-3.09,2.8-5.7,3.79-7.82l2.28-4.98-3.16-1.29c-.87,2.34-1.77,4.38-2.56,6.16-.76,1.79-1.49,3.34-2.13,4.65-.62,1.24-1.27,2.49-1.96,3.8-.69,1.27-1.42,2.63-2.3,4.05l3.5,1.96,5.52,3.01,5.44,3,3.29,1.79,16.67,9.53c1.3-2.52,2.45-4.73,3.41-6.65.98-1.92,1.73-3.51,2.35-4.81.79-1.62,1.61-3.39,2.5-5.35.89-1.94,1.84-4.07,2.81-6.43l-3.14-1.28Zm-3.07-56.13c-8.13,0-14.48-.18-18.92-.44a19.29,19.29,0,0,1-.72,4.69c1.73,1.07,3.81,2.33,6.16,3.88,2.35,1.52,5.03,3.35,7.94,5.46,7.26,5.25,11.15,8.58,11.94,9.25-9.52,2.43-15.1,3.35-16.76,3.64-4.05.65-7.31,1.05-9.81,1.33-2.5.23-4.24.41-5.28.5-.62,2.12-1.18,3.76-1.66,4.96l10.52,4.69c3.02,1.38,5.54,2.57,7.6,3.58q6.66,3.15,11.13,5.36l6.88,3.43c.14-.4.24-.78.34-1.19l.38-1.08c.14-.34.27-.7.43-1.07l.48-1.1c-3.35-1.5-6.19-2.72-8.56-3.75s-4.29-1.8-5.71-2.36l-7.72-3.39-4.37-1.93c3.57-.43,6.59-.85,9.14-1.22l6.02-.91c4.31-.67,7.84-1.36,10.5-1.91q4.035-.84,5.75-1.24a13.893,13.893,0,0,1,.74-2.99c-4.55-3.89-9.14-7.59-13.89-11.1-2.95-2.23-5.37-3.96-7.26-5.29-1.85-1.34-3.24-2.28-4.12-2.84l7.38.28,5.51.24c5.28.33,10.6.59,15.87.8l.24-2.08.29-2.31.33-2.26c.09-.72.17-1.34.29-1.93C457.259,272.06,450.3,272.17,443.249,272.17Z" fill="#9ca3af"/>
  <path id="Path_4" data-name="Path 4" d="M316.569,221.32l1.1.84c7.08,5.42,10.34,12.78,10.22,23.21-.1,8.2-.29,14.42-.45,18.96-.46,13.24-.5,15.28,4.68,16.5.45.1.88.21,1.25.28,1.92.44,3.6.79,4.2,1.81.63,1.08.5,3.21-.45,6.33-1.9,6.32-1.68,19.83,3.67,27.79,4.63,6.96,6.16,10.11,6.43,13.52l.12,1.5h5.37v6.87h-19.95l-.46.61a424.481,424.481,0,0,1-72.25,71.28l-.55.4-.53-.4a421.039,421.039,0,0,1-72.22-71.28l-.48-.61H164.6v-6.87h12.53l-.26-1.89c-1.53-11.82,7.5-18.76,15.34-22.48l1.18-.55-.31-1.29a200.6,200.6,0,0,0-6.24-20.36c-5.13-14.83-10.41-30.17-8.47-45.59l.12-.83-.6-.57c-10.74-10.04-15.16-26.54-13.17-49.02l.34-3.89-2.99,2.48a27.414,27.414,0,0,0-3.48,3.85c-.48-7.12-.34-21.74,6.78-34.38l.99-1.76-1.9-.6a9.624,9.624,0,0,0-2.73-.41,17.125,17.125,0,0,1,10.04-8.8l1.49-.45-.41-1.53a8.9,8.9,0,0,0-2.47-3.96,13.31,13.31,0,0,1,10.55-4.88c.29,0,.55.02.84.04l3.04.17-1.54-2.64a19.262,19.262,0,0,1-2.13-6.19,29.862,29.862,0,0,0,5.54.88l1.66.07v-1.66c.1-4.6,1.73-8.2,4.84-10.7a32,32,0,0,0,1.42,5.42l1.78,4.84,1.32-4.96c.43-1.72,4.79-7.71,13-8.8a14.56,14.56,0,0,0-1.51,6.24v3.27l2.61-1.93c1.15-.86,4.22-1.79,8.29-1.79a28.945,28.945,0,0,1,4,.28,25.117,25.117,0,0,1,8.2,2.93,24.971,24.971,0,0,0-5.1,2.03l-4.67,2.67,5.35.38a41.328,41.328,0,0,1,8.46,1.65,12.626,12.626,0,0,0-3.77,5.44l-.7,2.43,2.5-.36a14.327,14.327,0,0,1,2.14-.16,19.361,19.361,0,0,1,13.38,5.75,10.235,10.235,0,0,0-1.85,3.08,7.93,7.93,0,0,1-1.25,2.24l-.94.93.67,1.1c.41.67,3.35,5.31,6.91,7.82a10.448,10.448,0,0,1-3.57.71l-3.95.04,2.85,2.76c1.85,1.79,3.52,5.23,5.46,9.22,3.57,7.38,8.3,17.12,17.67,22.19a76.039,76.039,0,0,1-13.6,2.14l-3.21.16,2.01,2.5c7.48,9.2,20.59,12.65,33.25,16.01,6.83,1.84,13.93,3.72,19.88,6.46l1.29.57Zm2.49,89.4-.81-5.39c-1.2-7.58-2.42-15.41-9.66-20.16-9.06-5.99-11.53-8.8-13.9-15.78-.34-1-.7-2.14-1.17-3.58l-.24-.79-.74-.27c-3.93-1.4-9.02-2.05-15.59-2.05-1.1,0-2.23.01-3.31.04l-4.27.13,3.28,2.75c10.07,8.41,19.62,17.12,28.32,25.89,4.84,4.88,9.71,10.01,14.44,15.28Z" fill="#9ca3af"/>
  <path id="Path_5" data-name="Path 5" d="M205.71,289.59a22.921,22.921,0,0,1-4.49-8.51c4.01,1.23,9.33-.21,9.33-.21-5.87-3.46-8.9-6.25-10.07-8.81,4.87-.34,6.66-3.32,6.66-3.32-3.72-1.21-7.38-1.42-16.07-11.12C191.51,270.07,193.19,290.12,205.71,289.59Z" fill="#9ca3af"/>
  <path id="Path_6" data-name="Path 6" d="M210.07,229.02c.38,2.33,1.41,8.13,2.9,11.16-4.55-.88-9.4-5.6-12.56-9.23,2.09,9.39,12.47,15.79,18.85,16.65a37.294,37.294,0,0,1-3.4-10.55,11.249,11.249,0,0,0,5.42-1.51C218.13,235.15,213.52,231.29,210.07,229.02Z" fill="#9ca3af"/>
  <path id="Path_7" data-name="Path 7" d="M268.459,276.19a178.319,178.319,0,0,1-6.48,24.85c-1.13,2.28-8.56,2.91-12.32,2.87-10.67-.11-17.14-4.15-21.17-7.99A367.414,367.414,0,0,0,192.859,336a364.84,364.84,0,0,0,66.66,66.94A365.263,365.263,0,0,0,326.2,336,363.271,363.271,0,0,0,268.459,276.19Z" fill="#9ca3af"/>
  <path id="Path_8" data-name="Path 8" d="M218.918,198.78c6.76,11.78,31.05,20.12,32.97,21.08-6.12,2.11-16.83,3.76-25.65-.96a19.259,19.259,0,0,0,10.05-.96A34.966,34.966,0,0,1,218.918,198.78Z" fill="#9ca3af"/>
  <path id="Path_9" data-name="Path 9" d="M230.477,152.89c4.63,6.36,6.48,7.45,9.59,8.37-6.74-.14-9.95-3.39-9.95-3.39C229.807,153.64,230.477,152.89,230.477,152.89Z" fill="#9ca3af"/>
  <path id="Path_10" data-name="Path 10" d="M352.949,330.3h-4.08c-.31-3.7-1.85-7.03-6.71-14.3-4.96-7.37-5.33-20.2-3.45-26.41,2.81-9.41-1.49-9.35-6.21-10.46-5.28-1.24-3.35-2.5-3-33.9.14-11.95-4.17-19.4-10.82-24.47,7.58-13.73,2.16-22.38-4.31-27.93-3.79-3.27-30.12-22.67-25.23-34.61,3.36-8.05,17.6-3.57,22.66,2.27-1.9,8.29,6.47,11.58,7.74,12.35,1.29.79,1.89,2.72,1.96,3.98.65-.98,1.05-3.19.72-3.77a15.184,15.184,0,0,1,3.17,3.81c.65-1.88.48-5-.05-5.72a3.843,3.843,0,0,0,2.68.5c-3.21-2.26-3.05-4.87-3.79-5.85.38,0,1.01-.49,1.58-1.16a6.32,6.32,0,0,1-3.31-2.5,8.09,8.09,0,0,0-8.27-3.39c-5.95-7.43-23.69-15.13-29.49-1.57-5.27,12.25,15.87,30.91,24.98,40.57,6.74,7.11,4.7,13.21,1.2,18.44-17.1-7.85-41.45-8.34-52.56-22.03a68.544,68.544,0,0,0,18.24-3.48c-17.21-5.81-20.36-26.76-26.69-32.85a13.787,13.787,0,0,0,7.22-2.38c-3.35-.6-7.22-5.41-9.21-8.61,1.85-1.78,2.06-6.15,4.79-5.96-6.33-7.16-13.84-8.45-18.56-7.74a12.057,12.057,0,0,1,5.85-6.45,48.473,48.473,0,0,0-11.96-2.72,30.862,30.862,0,0,1,8.46-2.82c-2.44-1.58-7.1-4.54-12.16-5.2-6.79-.88-11.72.51-13.48,1.8a12.153,12.153,0,0,1,3.12-8.03c-11.44-.3-17.17,7.8-17.81,10.16a27.933,27.933,0,0,1-1.63-7.69c-4.96,2.73-7.65,7.3-7.75,13.5a31.8,31.8,0,0,1-7.36-1.46,18.74,18.74,0,0,0,2.49,9.21c-6.86-.36-11.92,3.36-13.76,7.06,1.12.1,2.76,2.27,3.16,3.79-8.1,2.46-11.34,9.85-12.16,12.22a9.86,9.86,0,0,1,4.82.09c-8.8,15.63-7.32,34.3-6.54,39.62,0,0,3.38-5.1,5.7-7.05-2.47,28.06,5.13,42.38,13.69,50.37-2.92,23.08,9.93,45.84,14.75,66.52-7.55,3.58-17.98,11.02-16.3,24.2a1.249,1.249,0,0,0,.19.03h-11.01a1.388,1.388,0,0,0-1.42,1.39V339a1.419,1.419,0,0,0,1.42,1.42h21.05a439.878,439.878,0,0,0,31.44,35.34,429.329,429.329,0,0,0,41.08,36.21l1.53,1.17,1.53-1.17a425.72,425.72,0,0,0,72.49-71.56h19.4a1.452,1.452,0,0,0,1.42-1.42v-7.31A1.457,1.457,0,0,0,352.949,330.3Zm-18-2.95c-3.31-4.25-6.71-8.41-10.22-12.53a51,51,0,0,0-2.71-15.45c-4-12.32-8.61-14.18-14.53-18.52-3.79-2.74-5.35-9.59-9.01-19.55-4.12-11.15-6.76-11.76-14.24-14.88a32,32,0,0,1,4.07,7.83c-3.6-.46-7.41.31-14.65,2.04,1.1-4.31-1.78-10.1-2.35-11.96.19,3.63.46,8.72-1.05,11.65-2.81,5.5-5.61,10.16-7.41,15.59a108.175,108.175,0,0,0-4.53,20.17c-.19,1.56-5.45,1.49-5.45,1.49-1.73-2.13-4.25-7-3.91-10.36a13.218,13.218,0,0,0-3.62,9.7,20.384,20.384,0,0,1-4.89-1.46,59.2,59.2,0,0,1-1.15-9.36c-2.04,1.3-4.58,4.17-4.61,6.94-2.08-1.12-3.53-2.58-3.47-3.55a24.527,24.527,0,0,1,.82-4.43c2.23-6.79,8.23-15.16,9.35-17.87-7.65,6.87-15.08,14.37-15.01,24.27.09.79.43.99.99,1.55,3.28,3.33,13.96,14.39,32.08,7.84.84-.95,3.26-10.53,7.02-21.66.81-2.38,1.77-5.15,2.78-7.82,10.21,8.48,20.05,17.43,29.35,26.73a430.09,430.09,0,0,1,34.43,39.24,419.277,419.277,0,0,1-73.51,73.82A415.69,415.69,0,0,1,186,332.98a414.122,414.122,0,0,1,39.15-43.81c-1.54-1.35-.72-4.63-.21-6.76a424.547,424.547,0,0,0-38.7,42.18c-2.09-.17-3.67-.38-3.67-.38,1.41-9.89,11.05-13.96,14.22-16.18-3.69-19.31-14.15-48.38-10.76-61.87,2.18,1.21,4.19,2.12,5.8,2.91a40.816,40.816,0,0,1-1.94-11.3c7.48,10.62,29.3,21.91,57.79,16.18-3.7-3.14-13.02-9.4-14.2-17.88a24.109,24.109,0,0,0,5.97,3.51c-1.89-2.31-3.57-6.17-3.5-9.03,4.01,1.9,24.8,1.97,41.92-8.75-10.81,4.23-32.75,9.46-49.87.6-1.25,4.39-2.08,21.81,10.1,29.17-35.78.81-47.12-23.05-51.43-34.4-2.44,4.69-4.91,12.03-3.6,18.05-4.22-3.57-12.04-15.56-11.96-34.81-.17-20.46,4.39-30.3,6.86-35.01-2.97,2.46-6.74,6.59-8.29,9.48-.55-9.48,3.57-18.42,6.52-21.29-2.11-1.19-3.57-1.64-4.67-1.57,1.63-3.48,5.39-5.6,8.65-7.08-1.97-1.24-2.37-3.65-3.41-4.69,3.41-2,5.16-3.91,11.82-3.91a13.818,13.818,0,0,1-3.17-8.29,26.06,26.06,0,0,0,6.74.65c-1.46-2.98-.29-7.37.19-8.13,1.01,6.24,4.79,9.73,6.54,10.72-2.3-8.37,4.82-13.81,8.77-14.98-1.23,4.19-.57,7.47.41,8.91,2.61-3.77,8.47-5.15,13.4-5.56a22.161,22.161,0,0,1,8.1.88,52.274,52.274,0,0,0-11.42,3.62c-8.49,4.04-8.63,7.94-6.96,10.84,1.59-7.99,13.07-8.74,21.77-7.1-2.26,1.4-4.24,4.76-4.41,8.37,4.72-1.21,14.36.72,17.05,3.87-1.87-.54-1.87,4.31-3.83,5.53,2.44,4.82,4.92,7.75,7.53,9.61a7.241,7.241,0,0,1-5.42-.22c6,8.35,7.48,25.53,19.93,33.08-8.34,3.13-17.57-4.7-22.82-9.7-2.14,8.22,4.37,17.83,5.8,19.7a45.224,45.224,0,0,1-10.05-4.72c5.23,12.4,24.12,17.84,29.66,19.8-12.37-7.1-17.38-17.75-18.03-19.97a20.26,20.26,0,0,0,5.93.95c4.19,5.1,9.5,14.8,28.97,19.76,20.98,4.53,42.44,9.58,42.7,31.66.34,25.06-1.89,35.19,2.04,36.74,6.04,2.33,4.96,1.36,4.05,8.06-.69,4.93.6,17.88,5.21,26.92.33.7,5.63,8.55,5.49,9.86C340.319,327.28,337.659,327.33,334.949,327.35Zm-18.32-21.8c-4.73-5.26-9.57-10.4-14.55-15.34-8.99-9.03-18.49-17.69-28.36-25.96,6.36-.19,13.16.1,18.29,1.89.34,1.27.72,2.48,1.13,3.65,2.57,7.49,5.33,10.51,14.56,16.59C314.329,290.77,315.459,298.1,316.629,305.55Z" fill="#9ca3af"/>
  <path id="Path_11" data-name="Path 11" d="M274.06,373.8c0,1.25-5.45,2.27-12.16,2.27-6.69,0-12.15-1.02-12.15-2.27,0-1.27,5.46-2.26,12.15-2.26S274.06,372.53,274.06,373.8Z" fill="#fff"/>
  <path id="Path_12" data-name="Path 12" d="M264.38,354.95c3.04-5.58,9.42-23.59,11.05-29.98l-.12-.24s-1.77.62-12.63.62c-2.49,0-3.45-2.82-3.45-6.39,0,0,1.06.59,9.59.59,7.53,0,10.64,0,12.02-.28a23.8,23.8,0,0,1-1.47,5.35c-3.76,9.26-9.06,25.09-10.79,30.38-1.7,5.17-3.6,6.18-6.59,6.18a4.357,4.357,0,0,1-1.36-.3v-.28A28.01,28.01,0,0,0,264.38,354.95Z" fill="#fff"/>
  <path id="Path_13" data-name="Path 13" d="M290.68,334.81l.22.31a17.733,17.733,0,0,0-1.58,7.81c0,5.07,1.24,9.8,4.99,9.8,3.09,0,4.87-3.28,4.87-7.09,0-12.77-14-9.44-14-21.55,0-5.93,4.22-11.23,9.57-11.23,6.26,0,9.56,4.19,9.56,10.35a10.393,10.393,0,0,1-6.28,9.91l-.26-.25a23.5,23.5,0,0,0,1.53-8.85c0-5.69-2.38-8.55-4.73-8.55-2.11,0-4.19,2.42-4.19,7.49,0,12.87,14.15,9.27,14.15,20.55,0,5.93-3.35,11.82-10.1,11.82-6.64,0-9.93-4.94-9.93-10.44C284.5,336.61,290.68,334.81,290.68,334.81Z" fill="#fff"/>
  <path id="Path_14" data-name="Path 14" d="M219.42,176.32c-1.2,2.05-2.33,2.45-3.1,2.35-2.32-.32-5.16-1.42-6.06-.15-.72.95-1.18,1.29-1.48,1.29-.33,0-.82-.34-1.51-1.29-.89-1.27-4.49.75-6.79,1.1-.96.11-2.52-.32-3.95-4.38-.34-1.17.43-1.66.79-1.05a10,10,0,0,0,1.89,1.97c2.21,1.82,6.07-1.02,8.47-1.83a21.312,21.312,0,0,0,.14-3.01c.05-.81-.72-1.13-3.09-2.26-2.37-1.15-3.17-1.7-3.17-3.72-.21-1.16.77.12,1.23.07,1.01-.1.94-.58,2.18-1.03,2.37-.78,1.63.82,3.81.82,2.14,0,1.39-1.6,3.76-.82,1.22.46,1.18.93,2.18,1.03.48.05,1.46-1.23,1.24-.07-.34,1.57-1.3,2.1-3.67,3.24s-2.62,1.93-2.56,2.74a21.378,21.378,0,0,0,.1,3.01c2.45.82,6.6,3.75,8.83,1.93a3.985,3.985,0,0,0,.6-.54C219.76,174.98,220.04,175.31,219.42,176.32Z" fill="#9ca3af"/>
  <path id="Path_15" data-name="Path 15" d="M201.368,154.44c.46,1.62.17,3.1.74,5.65,1.97-4.58,1.92-8.17,1.39-9.85a6.577,6.577,0,0,1-3.83-1.63,9.367,9.367,0,0,0-7.84,1.92c-.76-2.72-.27-4.29,1.15-5.29a11.926,11.926,0,0,1,4.89-1.79c1.59-.22,2.76-.07,3.31.46-1.01-2.42-3.04-3.39-4.51-4.49a5.684,5.684,0,0,1,.76,1.95c-8.32,1.85-10.22,5.27-11.2,7.99a18.3,18.3,0,0,0-.74,7.34,10.47,10.47,0,0,1,3.65-2.98,11.974,11.974,0,0,1,4.53-.92C196.908,155.68,199.948,153.58,201.368,154.44Z" fill="#9ca3af"/>
  <path id="Path_16" data-name="Path 16" d="M224.269,150.49c-.63,1.86-1.99,3.95-5.95,3.45a5.635,5.635,0,0,0-3.38.27,36.374,36.374,0,0,0,.48,5.13c-1.78-2.89-2.51-7.04-1.94-8.73a17.542,17.542,0,0,0,4.87-1.48c1.97-.27,5.46.67,6.79.5.6-.05.02.34.02.34A3.068,3.068,0,0,1,224.269,150.49Z" fill="#9ca3af"/>
  <path id="Path_17" data-name="Path 17" d="M197.32,150.1a7.592,7.592,0,0,0-2.64.25,2.93,2.93,0,0,0,2.69,2.52.749.749,0,0,1,.21.02,2.544,2.544,0,0,1-.26-2.79Z" fill="#9ca3af"/>
  <path id="Path_18" data-name="Path 18" d="M200.7,151.37c0-.03-.02-.03-.03-.06a3.739,3.739,0,0,0-.55-.51,1.885,1.885,0,0,0-.19-.1.622.622,0,0,0-.19-.11c-.12-.03-.27-.08-.41-.12a2.241,2.241,0,0,1,.21.76,2.149,2.149,0,0,1-.53,1.7,8.746,8.746,0,0,1,2.35-.05A3.011,3.011,0,0,0,200.7,151.37Z" fill="#9ca3af"/>
  <path id="Path_19" data-name="Path 19" d="M198.149,150.2c-.19-.03-.33-.03-.53-.07a.615.615,0,0,0-.17.42.59.59,0,0,0,.57.57.561.561,0,0,0,.53-.59.541.541,0,0,0-.09-.28A2.185,2.185,0,0,1,198.149,150.2Z" fill="#9ca3af"/>
  <path id="Path_20" data-name="Path 20" d="M219.848,150.04c-.1,0-.21.02-.31.02a2.786,2.786,0,0,1,.29,1.52,2.428,2.428,0,0,1-.57,1.38h.14a2.989,2.989,0,0,0,2.69-2.57A9.4,9.4,0,0,0,219.848,150.04Z" fill="#9ca3af"/>
  <path id="Path_21" data-name="Path 21" d="M241.63,334.81l.22.31a18.256,18.256,0,0,0-1.54,7.85c0,5.06,1.23,9.78,4.99,9.78,3.07,0,4.84-3.26,4.84-7.1,0-12.75-13.98-9.44-13.98-21.55,0-5.93,4.24-11.22,9.57-11.22,6.23,0,9.57,4.19,9.57,10.35a10.362,10.362,0,0,1-6.3,9.9l-.24-.23a23.423,23.423,0,0,0,1.54-8.86c0-5.69-2.42-8.55-4.79-8.55-2.13,0-4.19,2.44-4.19,7.52,0,12.84,14.15,9.25,14.15,20.54,0,5.94-3.33,11.82-10.07,11.82-6.64,0-9.97-4.95-9.97-10.42C235.46,336.63,241.63,334.81,241.63,334.81Z" fill="#fff"/>
  <path id="Path_22" data-name="Path 22" d="M220.1,326.77c-.43.17-4.36,1.54-5.16,1.91-.84.43-1.3.05-1.42-.16a12.228,12.228,0,0,1-.81-1.99c3.33-1.13,8.56-5.69,9.4-7.11h3.17c-.17,1.84-.14,3.26-.14,8.12v17.18c0,4.06.14,6.06.14,6.06a12.878,12.878,0,0,0,4.7,1.26c.45.08.65.65.65,1.22,0,.61-.03,1.52-.03,1.52a32.974,32.974,0,0,0-4.91-.27h-5.52a36.107,36.107,0,0,0-5.18.27s-.03-.67-.03-1.25c0-.55.1-1.36.82-1.49,1.73-.28,3.53-.62,4.17-1.15,0,0,.38-3.67.38-8.46,0,0-.05-8.61-.05-11.09C220.257,329.97,220.167,327.18,220.1,326.77Z" fill="#fff"/>
  <path id="Path_23" data-name="Path 23" d="M200.63,169.08l-.51-.81c-2.25-.76-6.28-1.76-15.64-1.54C188.76,167.07,196.14,167.75,200.63,169.08Z" fill="#9ca3af"/>
  <path id="Path_24" data-name="Path 24" d="M199.618,170.9l-.63-.72c-2.32-.45-6.45-.94-15.64.54C187.578,170.47,194.988,170.17,199.618,170.9Z" fill="#9ca3af"/>
  <path id="Path_25" data-name="Path 25" d="M200.737,172.72l-.7-.65c-2.35-.19-6.5-.19-15.51,2.29C188.727,173.61,196.067,172.48,200.737,172.72Z" fill="#9ca3af"/>
  <path id="Path_26" data-name="Path 26" d="M217.207,169.08l.5-.81c2.21-.76,6.28-1.76,15.61-1.54C229.057,167.07,221.647,167.75,217.207,169.08Z" fill="#9ca3af"/>
  <path id="Path_27" data-name="Path 27" d="M218.219,170.72l.58-.74c2.33-.45,6.47-.91,15.66.53C230.229,170.29,222.829,169.98,218.219,170.72Z" fill="#9ca3af"/>
  <path id="Path_28" data-name="Path 28" d="M217.09,172.51l.69-.65c2.35-.16,6.5-.16,15.51,2.31C229.08,173.44,221.72,172.32,217.09,172.51Z" fill="#9ca3af"/>
  <path id="Path_29" data-name="Path 29" d="M219.519,144.01a40.455,40.455,0,0,1,7.58,2.5c-4.51-4.48-9.73-5.1-10.89-4.81a5.913,5.913,0,0,1,.34-2.38c-2.93,1.12-3.84,2.86-4.01,4.72C213.429,143.68,214.719,143.01,219.519,144.01Z" fill="#9ca3af"/>
  <path id="Path_30" data-name="Path 30" d="M180.737,180.43c0,8.81,7.17,27.79,19.61,35.21-3.67-.52-14.67-7.31-17.65-12.39-1.82,4.39-2.28,14.09-1.77,19.01C177.717,216.15,173.567,197.33,180.737,180.43Z" fill="#9ca3af"/>
  <path id="Path_31" data-name="Path 31" d="M217.331,151.22a4.021,4.021,0,0,1,.19-.76,2.459,2.459,0,0,0-.81.34,2.8,2.8,0,0,0-1.32,2.12,9.454,9.454,0,0,1,2.49.09A2.291,2.291,0,0,1,217.331,151.22Z" fill="#9ca3af"/>
  <path id="Path_32" data-name="Path 32" d="M218.661,150.16c-.31.07-.6.16-.86.21a.959.959,0,0,0-.03.22.541.541,0,0,0,.5.6.594.594,0,0,0,.57-.59A.587.587,0,0,0,218.661,150.16Z" fill="#9ca3af"/>
  <path id="Path_33" data-name="Path 33" d="M200.429,195.91c-1.58-1.21-6.81-6.16-4.89-16.97.15-1.09.58-.49,1.01.52.19.45.33.88.45,1.14,1.92,4.55,2.68,8.54,10.76,6.02.67-.2,1.13-.59,3.53.13a6.371,6.371,0,0,0,6.14-1.08c.46,3.21-2.3,7.69-8.41,5.81-.74,2.73-.86,4.77-.43,6.2-3.45-.9-6.26-4.69-7-6.72C200.629,191.83,200.429,192.99,200.429,195.91Z" fill="#9ca3af"/>
</svg>
