<svg xmlns="http://www.w3.org/2000/svg" width="966.688" height="418.71" viewBox="0 0 966.688 418.71">
  <g id="naftal-logo" transform="translate(-12.86 -12.12)">
    <g id="g3">
      <path id="path5" d="M748.36,146.24c0,109.6-78.4,133.99-131.8,133.99H355.86l31.1-99.391h213.9c4.24,0,15.18-6.88,14.24-25.31-.63-12.49-8.44-22.5-14.24-22.99H402.06l37.7-120.4h176.8C696.67,12.13,748.36,51.64,748.36,146.24Z" fill="#9ca3af"/>
      <path id="polygon7" d="M197.67,179.54l-32.21,99.6H57.07l30.8-99.6Z" fill="#9ca3af"/>
      <path id="path9" d="M416.26,12.13l-95.2,296.2-11.1,34.5-12.4,38.6c-13.4,30.291-20.3,39.391-39.7,40.69h-245l39.3-127.1h136l89.7-282.9h138.4v.01Z" fill="#9ca3af"/>
    </g>
    <g id="g11">
      <path id="path13" d="M972.289,12.13c7.25,2.76,7.311,10.72,7.25,14.66-.1,5.05-2.25,16.23-8.71,18.24H737.25c-13.2-16.45-22.811-25.03-47.671-32.9h282.71Z" fill="#9ca3af"/>
      <path id="path15" d="M953.329,70.83c6.46,2.19,7.8,10.29,7.73,14.37-.1,5.01-2.21,15.63-8.55,18.13H765.14a135.338,135.338,0,0,0-10.59-32.5Z" fill="#9ca3af"/>
      <path id="path17" d="M933.85,131.64c7.42,2.32,7.86,11.88,7.38,15.99-.61,5.06-2.07,15.4-9.16,18.21H768.32c.48-6.3.67-12.8.67-19.6,0-5-.1-9.9-.479-14.6H933.85Z" fill="#9ca3af"/>
      <path id="path19" d="M912.92,189.14c5,0,7.17,14.17,6.949,19.29-.18,3.88.011,10.84-6.54,14.11H757.61a179.484,179.484,0,0,0,8.68-33.4H912.92Z" fill="#9ca3af"/>
      <path id="path21" d="M895.829,242.53c4.9,1.43,6.891,14.149,6.48,19.2-.43,5.209-1.58,15.039-9.8,18.5H692.72c21.05-1.6,40.51-14.1,54.47-37.7H895.829Z" fill="#9ca3af"/>
    </g>
    <g id="g23">
      <path id="polygon25" d="M926.67,408.939l-5,21.891H825.159l39.2-122.5h35.1L867.27,409.54Z" fill="#9ca3af"/>
      <path id="path27" d="M807.47,308.33l-95.2,84.5-6.81-.7,18.7-57.1,20.4-.5,9.2-26.2h-74.2l-8.6,26.2h17.6l-31.6,96.3h56.81l13.3-17.1,47.1.4-5.4,16.7h36.3l39.71-122.5H807.47Zm-24.3,82.01-24.9-.109,29.6-31Z" fill="#9ca3af"/>
      <path id="polygon29" d="M616.26,334.54l-9.59,31.9h40.8l-7.41,22.5H599.869l-12.71,41.891h-37.7l13.711-41.891,7.4-22.5,10.39-31.9,8.61-26.21h76.9l-8.6,26.21Z" fill="#9ca3af"/>
      <path id="path31" d="M536.06,308.33l-85.29,80,23.9-80h-35.9l-22.5,71.6-32.1-71.6h-30.7l-39.2,122.5h37l20.7-64.391,30.7,64.391h40.6l23.8-20.8,39.2.8-7.3,20h35.3l40.2-122.5Zm-22.5,80.609h-23.1l28.41-26.209Z" fill="#9ca3af"/>
    </g>
  </g>
</svg>
